<?xml version="1.0" encoding="UTF-8" standalone="no"?>
<!-- Created with Inkscape (http://www.inkscape.org/) -->

<svg
   xmlns:dc="http://purl.org/dc/elements/1.1/"
   xmlns:cc="http://creativecommons.org/ns#"
   xmlns:rdf="http://www.w3.org/1999/02/22-rdf-syntax-ns#"
   xmlns:svg="http://www.w3.org/2000/svg"
   xmlns="http://www.w3.org/2000/svg"
   xmlns:xlink="http://www.w3.org/1999/xlink"
   xmlns:sodipodi="http://sodipodi.sourceforge.net/DTD/sodipodi-0.dtd"
   xmlns:inkscape="http://www.inkscape.org/namespaces/inkscape"
   version="1.0"
   width="128"
   height="128"
   id="svg2408"
   inkscape:version="0.48.4 r9939"
   sodipodi:docname="accessories-calculator.svg">
  <sodipodi:namedview
     pagecolor="#ffffff"
     bordercolor="#666666"
     borderopacity="1"
     objecttolerance="10"
     gridtolerance="10"
     guidetolerance="10"
     inkscape:pageopacity="0"
     inkscape:pageshadow="2"
     inkscape:window-width="1366"
     inkscape:window-height="696"
     id="namedview198"
     showgrid="false"
     fit-margin-top="0"
     fit-margin-left="0"
     fit-margin-right="0"
     fit-margin-bottom="0"
     inkscape:zoom="3.4766083"
     inkscape:cx="27.677279"
     inkscape:cy="30.542061"
     inkscape:window-x="0"
     inkscape:window-y="26"
     inkscape:window-maximized="1"
     inkscape:current-layer="svg2408" />
  <defs
     id="defs2410">
    <linearGradient
       id="linearGradient3892">
      <stop
         id="stop3894"
         style="stop-color:#000000;stop-opacity:0.47058824"
         offset="0" />
      <stop
         id="stop3896"
         style="stop-color:#000000;stop-opacity:0.39215687"
         offset="0.11780351" />
      <stop
         id="stop3898"
         style="stop-color:#000000;stop-opacity:0.29411766"
         offset="0.23809524" />
      <stop
         id="stop3900"
         style="stop-color:#000000;stop-opacity:0.15686275"
         offset="1" />
    </linearGradient>
    <linearGradient
       id="linearGradient3864">
      <stop
         id="stop3866"
         style="stop-color:#ffffff;stop-opacity:0.07843138"
         offset="0" />
      <stop
         id="stop3872"
         style="stop-color:#ffffff;stop-opacity:0.3137255"
         offset="0.25" />
      <stop
         id="stop3874"
         style="stop-color:#ffffff;stop-opacity:0"
         offset="0.60000002" />
      <stop
         id="stop3868"
         style="stop-color:#ffffff;stop-opacity:0"
         offset="1" />
    </linearGradient>
    <linearGradient
       id="linearGradient4384">
      <stop
         id="stop4386"
         style="stop-color:#ffffff;stop-opacity:1"
         offset="0" />
      <stop
         id="stop4388"
         style="stop-color:#ffffff;stop-opacity:0"
         offset="1" />
    </linearGradient>
    <linearGradient
       id="linearGradient4367">
      <stop
         id="stop4369"
         style="stop-color:#ffffff;stop-opacity:0.71755725"
         offset="0" />
      <stop
         id="stop4371"
         style="stop-color:#ffffff;stop-opacity:1"
         offset="1" />
    </linearGradient>
    <linearGradient
       x1="45.447727"
       y1="92.539597"
       x2="45.447727"
       y2="7.0165396"
       id="ButtonShadow"
       gradientUnits="userSpaceOnUse"
       gradientTransform="scale(1.0058652,0.994169)">
      <stop
         id="stop3750"
         style="stop-color:#000000;stop-opacity:1"
         offset="0" />
      <stop
         id="stop3752"
         style="stop-color:#000000;stop-opacity:0.58823532"
         offset="1" />
    </linearGradient>
    <linearGradient
       id="linearGradient3737">
      <stop
         id="stop3739"
         style="stop-color:#ffffff;stop-opacity:1"
         offset="0" />
      <stop
         id="stop3741"
         style="stop-color:#ffffff;stop-opacity:0"
         offset="1" />
    </linearGradient>
    <filter
       color-interpolation-filters="sRGB"
       id="filter3174">
      <feGaussianBlur
         id="feGaussianBlur3176"
         stdDeviation="1.71" />
    </filter>
    <filter
       x="-0.192"
       y="-0.192"
       width="1.3839999"
       height="1.3839999"
       color-interpolation-filters="sRGB"
       id="filter3794">
      <feGaussianBlur
         id="feGaussianBlur3796"
         stdDeviation="5.28" />
    </filter>
    <linearGradient
       x1="48"
       y1="20.220806"
       x2="48"
       y2="138.66119"
       id="linearGradient3613"
       xlink:href="#linearGradient3737"
       gradientUnits="userSpaceOnUse" />
    <linearGradient
       x1="45.447727"
       y1="92.539597"
       x2="45.447727"
       y2="7.0165396"
       id="ButtonShadow-0"
       gradientUnits="userSpaceOnUse"
       gradientTransform="matrix(1.0058652,0,0,0.994169,100,0)">
      <stop
         id="stop3750-8"
         style="stop-color:#000000;stop-opacity:1"
         offset="0" />
      <stop
         id="stop3752-5"
         style="stop-color:#000000;stop-opacity:0.58823532"
         offset="1" />
    </linearGradient>
    <linearGradient
       x1="32.251034"
       y1="6.1317081"
       x2="32.251034"
       y2="90.238609"
       id="linearGradient3780"
       xlink:href="#ButtonShadow-0"
       gradientUnits="userSpaceOnUse"
       gradientTransform="matrix(1.0238095,0,0,1.0119048,-1.1428571,-98.071429)" />
    <linearGradient
       x1="32.251034"
       y1="6.1317081"
       x2="32.251034"
       y2="90.238609"
       id="linearGradient3772"
       xlink:href="#ButtonShadow-0"
       gradientUnits="userSpaceOnUse"
       gradientTransform="matrix(1.0238095,0,0,1.0119048,-1.1428571,-98.071429)" />
    <linearGradient
       x1="32.251034"
       y1="6.1317081"
       x2="32.251034"
       y2="90.238609"
       id="linearGradient3725"
       xlink:href="#ButtonShadow-0"
       gradientUnits="userSpaceOnUse"
       gradientTransform="matrix(1.0238095,0,0,1.0119048,-1.1428571,-98.071429)" />
    <linearGradient
       x1="32.251034"
       y1="6.1317081"
       x2="32.251034"
       y2="90.238609"
       id="linearGradient3721"
       xlink:href="#ButtonShadow-0"
       gradientUnits="userSpaceOnUse"
       gradientTransform="translate(0,-97)" />
    <linearGradient
       x1="32.251034"
       y1="6.1317081"
       x2="32.251034"
       y2="90.238609"
       id="linearGradient3026"
       xlink:href="#ButtonShadow-0"
       gradientUnits="userSpaceOnUse"
       gradientTransform="matrix(1.0238095,0,0,1.0119048,-1.1428571,-98.071429)" />
    <clipPath
       id="clipPath4355">
      <rect
         width="84"
         height="80"
         rx="6"
         ry="6"
         x="6"
         y="6"
         id="rect4357"
         style="fill:#ffffff;fill-opacity:1;fill-rule:nonzero;stroke:none" />
    </clipPath>
    <radialGradient
       cx="48"
       cy="87.792389"
       r="42"
       fx="48"
       fy="87.792389"
       id="radialGradient4375"
       xlink:href="#linearGradient4367"
       gradientUnits="userSpaceOnUse"
       gradientTransform="matrix(1,-6.7114942e-8,8.4282233e-8,1.2557894,109.99999,-24.505592)" />
    <linearGradient
       x1="48"
       y1="88"
       x2="48"
       y2="-40"
       id="linearGradient4390"
       xlink:href="#linearGradient4384"
       gradientUnits="userSpaceOnUse"
       gradientTransform="matrix(1,0,0,-1,0,92)" />
    <linearGradient
       x1="48"
       y1="82"
       x2="112.12357"
       y2="82.454597"
       id="linearGradient4429"
       xlink:href="#linearGradient4384"
       gradientUnits="userSpaceOnUse"
       spreadMethod="reflect" />
    <linearGradient
       id="linearGradient4482">
      <stop
         id="stop4484"
         style="stop-color:#ffffff;stop-opacity:0.12977099"
         offset="0" />
      <stop
         id="stop4486"
         style="stop-color:#424242;stop-opacity:0.28244275"
         offset="0.11780351" />
      <stop
         id="stop4488"
         style="stop-color:#2f2f2f;stop-opacity:0.30534351"
         offset="0.23809524" />
      <stop
         id="stop4490"
         style="stop-color:#000000;stop-opacity:0.35114503"
         offset="1" />
    </linearGradient>
    <linearGradient
       x1="90"
       y1="88"
       x2="48"
       y2="88"
       id="linearGradient3855"
       xlink:href="#linearGradient4482"
       gradientUnits="userSpaceOnUse"
       gradientTransform="translate(0,40)"
       spreadMethod="reflect" />
    <linearGradient
       x1="6"
       y1="115"
       x2="24"
       y2="115"
       id="linearGradient3884"
       xlink:href="#linearGradient3864"
       gradientUnits="userSpaceOnUse"
       gradientTransform="matrix(-1,0,0,1,96,-30)" />
    <linearGradient
       x1="6"
       y1="115"
       x2="24"
       y2="115"
       id="linearGradient3886"
       xlink:href="#linearGradient3864"
       gradientUnits="userSpaceOnUse"
       gradientTransform="translate(0,-30)" />
    <linearGradient
       x1="90"
       y1="88"
       x2="48"
       y2="88"
       id="linearGradient3890"
       xlink:href="#linearGradient3892"
       gradientUnits="userSpaceOnUse"
       gradientTransform="translate(-120,0)"
       spreadMethod="reflect" />
    <linearGradient
       id="linearGradient3778">
      <stop
         id="stop3780"
         style="stop-color:#323232;stop-opacity:1"
         offset="0" />
      <stop
         id="stop3782"
         style="stop-color:#505050;stop-opacity:1"
         offset="1" />
    </linearGradient>
    <linearGradient
       id="linearGradient3720">
      <stop
         id="stop3722"
         style="stop-color:#928075;stop-opacity:1"
         offset="0" />
      <stop
         id="stop3724"
         style="stop-color:#5b4f48;stop-opacity:1"
         offset="1" />
    </linearGradient>
    <linearGradient
       id="linearGradient3762">
      <stop
         id="stop3764"
         style="stop-color:#c06517;stop-opacity:1"
         offset="0" />
      <stop
         id="stop3766"
         style="stop-color:#e88b3b;stop-opacity:1"
         offset="1" />
    </linearGradient>
    <linearGradient
       id="linearGradient3770">
      <stop
         id="stop3772"
         style="stop-color:#802b27;stop-opacity:1"
         offset="0" />
      <stop
         id="stop3774"
         style="stop-color:#a93833;stop-opacity:1"
         offset="1" />
    </linearGradient>
    <linearGradient
       x1="64"
       y1="15.5"
       x2="64"
       y2="35.770973"
       id="linearGradient3812"
       xlink:href="#linearGradient3465-8"
       gradientUnits="userSpaceOnUse"
       gradientTransform="matrix(1.025,0,0,1.0625,-9.6,-3.9999969)" />
    <linearGradient
       id="linearGradient3465-8">
      <stop
         id="stop3467-5"
         style="stop-color:#ccc7c1;stop-opacity:1"
         offset="0" />
      <stop
         id="stop3469-9"
         style="stop-color:#fefefd;stop-opacity:0.58015269"
         offset="1" />
    </linearGradient>
    <linearGradient
       x1="34"
       y1="14"
       x2="34"
       y2="39"
       id="linearGradient3894"
       xlink:href="#linearGradient3888"
       gradientUnits="userSpaceOnUse" />
    <linearGradient
       id="linearGradient3888">
      <stop
         id="stop3890"
         style="stop-color:#717249;stop-opacity:1"
         offset="0" />
      <stop
         id="stop3892"
         style="stop-color:#717249;stop-opacity:0"
         offset="1" />
    </linearGradient>
    <linearGradient
       x1="37"
       y1="16"
       x2="37"
       y2="49"
       id="linearGradient3902"
       xlink:href="#linearGradient3888"
       gradientUnits="userSpaceOnUse" />
    <linearGradient
       id="linearGradient4081">
      <stop
         id="stop4083"
         style="stop-color:#bcb5ac;stop-opacity:1"
         offset="0" />
      <stop
         id="stop4085"
         style="stop-color:#e9e7e4;stop-opacity:1"
         offset="1" />
    </linearGradient>
    <linearGradient
       x1="48"
       y1="90"
       x2="48"
       y2="5.9877172"
       id="linearGradient4102"
       xlink:href="#linearGradient4081"
       gradientUnits="userSpaceOnUse" />
    <linearGradient
       x1="94.746246"
       y1="102"
       x2="94.746246"
       y2="112.04894"
       id="linearGradient3419"
       xlink:href="#linearGradient3762"
       gradientUnits="userSpaceOnUse"
       gradientTransform="matrix(0.7499999,0,0,0.7500001,2.0000056,-2.5000253)" />
    <linearGradient
       x1="74.666664"
       y1="112"
       x2="74.666664"
       y2="102"
       id="linearGradient3423"
       xlink:href="#linearGradient3720"
       gradientUnits="userSpaceOnUse"
       gradientTransform="matrix(0.7499999,0,0,0.7500001,1.0000094,-2.5000253)" />
    <linearGradient
       x1="53.333332"
       y1="102"
       x2="53.333332"
       y2="112"
       id="linearGradient3428"
       xlink:href="#linearGradient3720"
       gradientUnits="userSpaceOnUse"
       gradientTransform="matrix(0.7499999,0,0,0.7500001,-0.9999944,-158)" />
    <linearGradient
       x1="30.246527"
       y1="102"
       x2="30.246527"
       y2="112.00001"
       id="linearGradient3432"
       xlink:href="#linearGradient3778"
       gradientUnits="userSpaceOnUse"
       gradientTransform="matrix(0.7499999,0,0,0.7500001,-1.999996,-2.5000253)" />
    <linearGradient
       x1="93.746803"
       y1="54"
       x2="93.746803"
       y2="64.000008"
       id="linearGradient3436"
       xlink:href="#linearGradient3770"
       gradientUnits="userSpaceOnUse"
       gradientTransform="matrix(0.7499999,0,0,0.7500001,2.0000056,-2.5000138)" />
    <linearGradient
       x1="30.246527"
       y1="102"
       x2="30.246527"
       y2="112.00001"
       id="linearGradient3440"
       xlink:href="#linearGradient3778"
       gradientUnits="userSpaceOnUse"
       gradientTransform="matrix(0.7499999,0,0,0.7500001,33.000006,-38.500023)" />
    <linearGradient
       x1="30.246527"
       y1="102"
       x2="30.246527"
       y2="112.00001"
       id="linearGradient3444"
       xlink:href="#linearGradient3778"
       gradientUnits="userSpaceOnUse"
       gradientTransform="matrix(0.7499999,0,0,0.7500001,15.000004,-38.500023)" />
    <linearGradient
       x1="30.246527"
       y1="102"
       x2="30.246527"
       y2="112.00001"
       id="linearGradient3448"
       xlink:href="#linearGradient3778"
       gradientUnits="userSpaceOnUse"
       gradientTransform="matrix(0.7499999,0,0,0.7500001,-1.999996,-38.500023)" />
    <linearGradient
       x1="96"
       y1="80"
       x2="96"
       y2="70"
       id="linearGradient3452"
       xlink:href="#linearGradient3720"
       gradientUnits="userSpaceOnUse"
       gradientTransform="matrix(0.7499999,0,0,0.7500001,2.0000056,-2.5000138)" />
    <linearGradient
       x1="30.246527"
       y1="102"
       x2="30.246527"
       y2="112.00001"
       id="linearGradient3456"
       xlink:href="#linearGradient3778"
       gradientUnits="userSpaceOnUse"
       gradientTransform="matrix(0.7499999,0,0,0.7500001,33.000006,-26.50002)" />
    <linearGradient
       x1="30.246527"
       y1="102"
       x2="30.246527"
       y2="112.00001"
       id="linearGradient3460"
       xlink:href="#linearGradient3778"
       gradientUnits="userSpaceOnUse"
       gradientTransform="matrix(0.7499999,0,0,0.7500001,15.000004,-26.50002)" />
    <linearGradient
       x1="30.246527"
       y1="102"
       x2="30.246527"
       y2="112.00001"
       id="linearGradient3464"
       xlink:href="#linearGradient3778"
       gradientUnits="userSpaceOnUse"
       gradientTransform="matrix(0.7499999,0,0,0.7500001,-1.999996,-26.50002)" />
    <linearGradient
       x1="95.745689"
       y1="96"
       x2="95.745689"
       y2="85.996765"
       id="linearGradient3468"
       xlink:href="#linearGradient3720"
       gradientUnits="userSpaceOnUse"
       gradientTransform="matrix(0.7499999,0,0,0.7500001,2.0000056,-2.5000214)" />
    <linearGradient
       x1="30.246527"
       y1="102"
       x2="30.246527"
       y2="112.00001"
       id="linearGradient3472"
       xlink:href="#linearGradient3778"
       gradientUnits="userSpaceOnUse"
       gradientTransform="matrix(0.7499999,0,0,0.7500001,33.000006,-14.500024)" />
    <linearGradient
       x1="30.246527"
       y1="102"
       x2="30.246527"
       y2="112.00001"
       id="linearGradient3476"
       xlink:href="#linearGradient3778"
       gradientUnits="userSpaceOnUse"
       gradientTransform="matrix(0.7499999,0,0,0.7500001,15.000004,-14.500024)" />
    <linearGradient
       x1="30.246527"
       y1="102"
       x2="30.246527"
       y2="112.00001"
       id="linearGradient3480"
       xlink:href="#linearGradient3778"
       gradientUnits="userSpaceOnUse"
       gradientTransform="matrix(0.7499999,0,0,0.7500001,-1.999996,-14.500024)" />
    <linearGradient
       id="linearGradient3892-4">
      <stop
         id="stop3894-8"
         style="stop-color:#000000;stop-opacity:0.58823532"
         offset="0" />
      <stop
         id="stop3896-1"
         style="stop-color:#000000;stop-opacity:0.47058824"
         offset="0.11780351" />
      <stop
         id="stop3898-2"
         style="stop-color:#000000;stop-opacity:0.39215687"
         offset="0.23809524" />
      <stop
         id="stop3900-9"
         style="stop-color:#000000;stop-opacity:0.3137255"
         offset="1" />
    </linearGradient>
    <linearGradient
       x1="90"
       y1="88"
       x2="48"
       y2="88"
       id="linearGradient3515"
       xlink:href="#linearGradient3892-4"
       gradientUnits="userSpaceOnUse"
       spreadMethod="reflect" />
    <linearGradient
       inkscape:collect="always"
       xlink:href="#ButtonShadow-0"
       id="linearGradient3176"
       gradientUnits="userSpaceOnUse"
       gradientTransform="translate(0,-97)"
       x1="32.251034"
       y1="6.1317081"
       x2="32.251034"
       y2="90.238609" />
    <linearGradient
       inkscape:collect="always"
       xlink:href="#ButtonShadow-0"
       id="linearGradient3179"
       gradientUnits="userSpaceOnUse"
       gradientTransform="matrix(1.0238095,0,0,1.0119048,-1.1428571,-98.071429)"
       x1="32.251034"
       y1="6.1317081"
       x2="32.251034"
       y2="90.238609" />
    <linearGradient
       inkscape:collect="always"
       xlink:href="#ButtonShadow-0"
       id="linearGradient3182"
       gradientUnits="userSpaceOnUse"
       gradientTransform="matrix(1.0238095,0,0,-1.0119048,-1.1428571,98.071429)"
       x1="32.251034"
       y1="6.1317081"
       x2="32.251034"
       y2="90.238609" />
    <linearGradient
       inkscape:collect="always"
       xlink:href="#ButtonShadow-0"
       id="linearGradient3185"
       gradientUnits="userSpaceOnUse"
       gradientTransform="matrix(1.0238095,0,0,-1.0119048,-1.1428571,98.071429)"
       x1="32.251034"
       y1="6.1317081"
       x2="32.251034"
       y2="90.238609" />
    <linearGradient
       inkscape:collect="always"
       xlink:href="#ButtonShadow-0"
       id="linearGradient3188"
       gradientUnits="userSpaceOnUse"
       gradientTransform="matrix(1.0238095,0,0,-1.0119048,-1.1428571,98.071429)"
       x1="32.251034"
       y1="6.1317081"
       x2="32.251034"
       y2="90.238609" />
    <linearGradient
       inkscape:collect="always"
       xlink:href="#linearGradient4384"
       id="linearGradient3191"
       gradientUnits="userSpaceOnUse"
       spreadMethod="reflect"
       x1="48"
       y1="82"
       x2="112.12357"
       y2="82.454597"
       gradientTransform="matrix(1.5238095,0,0,1.5238095,-9.1428571,-9.142857)" />
    <linearGradient
       inkscape:collect="always"
       xlink:href="#linearGradient4384"
       id="linearGradient3195"
       gradientUnits="userSpaceOnUse"
       gradientTransform="matrix(1.5238095,0,0,-1.5238095,-9.1428571,131.04762)"
       x1="48"
       y1="88"
       x2="48"
       y2="-40" />
    <radialGradient
       inkscape:collect="always"
       xlink:href="#linearGradient4367"
       id="radialGradient3198"
       gradientUnits="userSpaceOnUse"
       gradientTransform="matrix(1,-6.7114942e-8,8.4282233e-8,1.2557894,109.99999,-24.505592)"
       cx="48"
       cy="87.792389"
       fx="48"
       fy="87.792389"
       r="42" />
    <linearGradient
       inkscape:collect="always"
       xlink:href="#linearGradient3762"
       id="linearGradient3202"
       gradientUnits="userSpaceOnUse"
       gradientTransform="matrix(1.142857,0,0,1.1428573,-6.0952296,-12.95242)"
       x1="94.746246"
       y1="102"
       x2="94.746246"
       y2="112.04894" />
    <linearGradient
       inkscape:collect="always"
       xlink:href="#linearGradient3720"
       id="linearGradient3206"
       gradientUnits="userSpaceOnUse"
       gradientTransform="matrix(1.142857,0,0,1.1428573,-7.6190333,-12.95242)"
       x1="74.666664"
       y1="112"
       x2="74.666664"
       y2="102" />
    <linearGradient
       inkscape:collect="always"
       xlink:href="#linearGradient3720"
       id="linearGradient3210"
       gradientUnits="userSpaceOnUse"
       gradientTransform="matrix(1.142857,0,0,1.1428573,-10.666658,-231.61905)"
       x1="53.333332"
       y1="102"
       x2="53.333332"
       y2="112" />
    <linearGradient
       inkscape:collect="always"
       xlink:href="#linearGradient3778"
       id="linearGradient3214"
       gradientUnits="userSpaceOnUse"
       gradientTransform="matrix(1.142857,0,0,1.1428573,-12.19047,-12.95242)"
       x1="30.246527"
       y1="102"
       x2="30.246527"
       y2="112.00001" />
    <linearGradient
       inkscape:collect="always"
       xlink:href="#linearGradient3770"
       id="linearGradient3218"
       gradientUnits="userSpaceOnUse"
       gradientTransform="matrix(1.142857,0,0,1.1428573,-6.0952296,-12.952402)"
       x1="93.746803"
       y1="54"
       x2="93.746803"
       y2="64.000008" />
    <linearGradient
       inkscape:collect="always"
       xlink:href="#linearGradient3778"
       id="linearGradient3222"
       gradientUnits="userSpaceOnUse"
       gradientTransform="matrix(1.142857,0,0,1.1428573,41.142866,-67.80956)"
       x1="30.246527"
       y1="102"
       x2="30.246527"
       y2="112.00001" />
    <linearGradient
       inkscape:collect="always"
       xlink:href="#linearGradient3778"
       id="linearGradient3226"
       gradientUnits="userSpaceOnUse"
       gradientTransform="matrix(1.142857,0,0,1.1428573,13.714292,-67.80956)"
       x1="30.246527"
       y1="102"
       x2="30.246527"
       y2="112.00001" />
    <linearGradient
       inkscape:collect="always"
       xlink:href="#linearGradient3778"
       id="linearGradient3230"
       gradientUnits="userSpaceOnUse"
       gradientTransform="matrix(1.142857,0,0,1.1428573,-12.19047,-67.80956)"
       x1="30.246527"
       y1="102"
       x2="30.246527"
       y2="112.00001" />
    <linearGradient
       inkscape:collect="always"
       xlink:href="#linearGradient3720"
       id="linearGradient3234"
       gradientUnits="userSpaceOnUse"
       gradientTransform="matrix(1.142857,0,0,1.1428573,-6.0952296,-12.952402)"
       x1="96"
       y1="80"
       x2="96"
       y2="70" />
    <linearGradient
       inkscape:collect="always"
       xlink:href="#linearGradient3778"
       id="linearGradient3238"
       gradientUnits="userSpaceOnUse"
       gradientTransform="matrix(1.142857,0,0,1.1428573,41.142866,-49.52384)"
       x1="30.246527"
       y1="102"
       x2="30.246527"
       y2="112.00001" />
    <linearGradient
       inkscape:collect="always"
       xlink:href="#linearGradient3778"
       id="linearGradient3242"
       gradientUnits="userSpaceOnUse"
       gradientTransform="matrix(1.142857,0,0,1.1428573,13.714292,-49.52384)"
       x1="30.246527"
       y1="102"
       x2="30.246527"
       y2="112.00001" />
    <linearGradient
       inkscape:collect="always"
       xlink:href="#linearGradient3778"
       id="linearGradient3246"
       gradientUnits="userSpaceOnUse"
       gradientTransform="matrix(1.142857,0,0,1.1428573,-12.19047,-49.52384)"
       x1="30.246527"
       y1="102"
       x2="30.246527"
       y2="112.00001" />
    <linearGradient
       inkscape:collect="always"
       xlink:href="#linearGradient3720"
       id="linearGradient3250"
       gradientUnits="userSpaceOnUse"
       gradientTransform="matrix(1.142857,0,0,1.1428573,-6.0952296,-12.952414)"
       x1="95.745689"
       y1="96"
       x2="95.745689"
       y2="85.996765" />
    <linearGradient
       inkscape:collect="always"
       xlink:href="#linearGradient3778"
       id="linearGradient3254"
       gradientUnits="userSpaceOnUse"
       gradientTransform="matrix(1.142857,0,0,1.1428573,41.142866,-31.238132)"
       x1="30.246527"
       y1="102"
       x2="30.246527"
       y2="112.00001" />
    <linearGradient
       inkscape:collect="always"
       xlink:href="#linearGradient3778"
       id="linearGradient3258"
       gradientUnits="userSpaceOnUse"
       gradientTransform="matrix(1.142857,0,0,1.1428573,13.714292,-31.238132)"
       x1="30.246527"
       y1="102"
       x2="30.246527"
       y2="112.00001" />
    <linearGradient
       inkscape:collect="always"
       xlink:href="#linearGradient3778"
       id="linearGradient3262"
       gradientUnits="userSpaceOnUse"
       gradientTransform="matrix(1.142857,0,0,1.1428573,-12.19047,-31.238132)"
       x1="30.246527"
       y1="102"
       x2="30.246527"
       y2="112.00001" />
    <linearGradient
       inkscape:collect="always"
       xlink:href="#linearGradient3465-8"
       id="linearGradient3297"
       gradientUnits="userSpaceOnUse"
       gradientTransform="matrix(1.5619047,0,0,1.6190476,-23.771428,-15.23809)"
       x1="64"
       y1="15.5"
       x2="64"
       y2="35.770973" />
    <linearGradient
       inkscape:collect="always"
       xlink:href="#linearGradient4081"
       id="linearGradient3300"
       gradientUnits="userSpaceOnUse"
       x1="48"
       y1="90"
       x2="48"
       y2="5.9877172"
       gradientTransform="matrix(1.5238095,0,0,1.5238095,-9.1428571,-9.142857)" />
    <linearGradient
       inkscape:collect="always"
       xlink:href="#linearGradient3888"
       id="linearGradient3303"
       gradientUnits="userSpaceOnUse"
       x1="34"
       y1="14"
       x2="34"
       y2="39"
       gradientTransform="matrix(1.5238095,0,0,1.5238095,-9.1428571,-9.142857)" />
    <linearGradient
       inkscape:collect="always"
       xlink:href="#linearGradient3888"
       id="linearGradient3306"
       gradientUnits="userSpaceOnUse"
       x1="37"
       y1="16"
       x2="37"
       y2="49"
       gradientTransform="matrix(1.5238095,0,0,1.5238095,-9.1428571,-9.142857)" />
    <linearGradient
       inkscape:collect="always"
       xlink:href="#linearGradient3892-4"
       id="linearGradient3313"
       gradientUnits="userSpaceOnUse"
       spreadMethod="reflect"
       x1="90"
       y1="88"
       x2="48"
       y2="88" />
    <linearGradient
       inkscape:collect="always"
       xlink:href="#linearGradient3892"
       id="linearGradient3316"
       gradientUnits="userSpaceOnUse"
       gradientTransform="translate(-120,0)"
       spreadMethod="reflect"
       x1="90"
       y1="88"
       x2="48"
       y2="88" />
    <linearGradient
       inkscape:collect="always"
       xlink:href="#linearGradient4482"
       id="linearGradient3319"
       gradientUnits="userSpaceOnUse"
       gradientTransform="translate(0,40)"
       spreadMethod="reflect"
       x1="90"
       y1="88"
       x2="48"
       y2="88" />
    <linearGradient
       inkscape:collect="always"
       xlink:href="#linearGradient3864"
       id="linearGradient3326"
       gradientUnits="userSpaceOnUse"
       gradientTransform="matrix(-1,0,0,1,96,-30)"
       x1="6"
       y1="115"
       x2="24"
       y2="115" />
    <linearGradient
       inkscape:collect="always"
       xlink:href="#linearGradient3864"
       id="linearGradient3328"
       gradientUnits="userSpaceOnUse"
       gradientTransform="translate(0,-30)"
       x1="6"
       y1="115"
       x2="24"
       y2="115" />
    <linearGradient
       inkscape:collect="always"
       xlink:href="#linearGradient3864"
       id="linearGradient3331"
       gradientUnits="userSpaceOnUse"
       gradientTransform="translate(0,-10)"
       x1="6"
       y1="115"
       x2="24"
       y2="115" />
    <linearGradient
       inkscape:collect="always"
       xlink:href="#linearGradient3864"
       id="linearGradient3334"
       gradientUnits="userSpaceOnUse"
       gradientTransform="matrix(-1,0,0,1,96,-10)"
       x1="6"
       y1="115"
       x2="24"
       y2="115" />
    <linearGradient
       inkscape:collect="always"
       xlink:href="#linearGradient3892-4"
       id="linearGradient3338"
       gradientUnits="userSpaceOnUse"
       spreadMethod="reflect"
       x1="90"
       y1="88"
       x2="48"
       y2="88"
       gradientTransform="matrix(1.5238095,0,0,1.5238095,-9.1428571,-9.142857)" />
  </defs>
  <metadata
     id="metadata2413">
    <rdf:RDF>
      <cc:Work
         rdf:about="">
        <dc:format>image/svg+xml</dc:format>
        <dc:type
           rdf:resource="http://purl.org/dc/dcmitype/StillImage" />
        <dc:title></dc:title>
      </cc:Work>
    </rdf:RDF>
  </metadata>
  <g
     id="layer2"
     style="display:none"
     transform="translate(-6,38)">
    <rect
       width="86"
       height="85"
       rx="6"
       ry="6"
       x="5"
       y="7"
       id="rect3745"
       style="opacity:0.9;fill:url(#ButtonShadow);fill-opacity:1;fill-rule:nonzero;stroke:none;filter:url(#filter3174)" />
  </g>
  <rect
     style="fill:#bdc490;fill-opacity:1;fill-rule:nonzero;stroke:none;display:inline"
     id="rect3907"
     y="7.183672"
     x="11.319731"
     ry="3.7295918"
     rx="3.9081631"
     height="39.782314"
     width="104.21769" />
  <path
     d="m 99.42745,25.342604 -2.24431,1.770821 -2.27383,-1.770821 0,-3.571654 2.27383,-1.77082 2.24431,1.77082 0,3.571654 m -2.6282,-5.612599 -2.2443,1.800832 -4.518142,0 -2.244305,-1.800832 2.244305,-1.770822 4.518142,0 2.2443,1.770822 m 2.6282,13.266146 -2.24431,1.77082 -2.27383,-1.77082 0,-3.571654 2.27383,-1.770822 2.24431,1.770822 0,3.571654 m -9.685948,-7.653547 -2.244301,1.770821 -2.273835,-1.770821 0,-3.571654 2.273835,-1.77082 2.244301,1.77082 0,3.571654 m 7.057748,9.784534 -2.27383,1.77082 -4.488612,0 -2.273835,-1.77082 2.273835,-1.800834 4.488612,0 2.27383,1.800834 m -7.057748,-2.130987 -2.244301,1.77082 -2.273835,-1.77082 0,-3.571654 2.273835,-1.770822 2.244301,1.770822 0,3.571654"
     inkscape:connector-curvature="0"
     id="path3961"
     style="font-size:48px;font-style:normal;font-variant:normal;font-weight:900;font-stretch:normal;text-align:start;line-height:100%;writing-mode:lr-tb;text-anchor:start;opacity:0.5;fill:#000000;fill-opacity:1;stroke:none;display:inline;font-family:Endless Showroom;-inkscape-font-specification:Endless Showroom Heavy" />
  <path
     d="m 106.43695,35.090571 -2.42007,1.807387 -2.23626,-1.807387 2.32816,-1.838022 2.32817,1.838022"
     inkscape:connector-curvature="0"
     id="text3944"
     style="font-size:48px;font-style:normal;font-variant:normal;font-weight:900;font-stretch:normal;text-align:start;line-height:100%;writing-mode:lr-tb;text-anchor:start;opacity:0.5;fill:#000000;fill-opacity:1;stroke:none;display:inline;font-family:Endless Showroom;-inkscape-font-specification:Endless Showroom Heavy" />
  <path
     style="opacity:0.3;color:#000000;fill:url(#linearGradient3306);fill-opacity:1;fill-rule:nonzero;stroke:none;stroke-width:1.5;marker:none;visibility:visible;display:inline;overflow:visible;enable-background:accumulate"
     id="rect3761"
     inkscape:connector-curvature="0"
     d="m 16.761905,12.190476 c -0.844191,0 -1.52381,0.679619 -1.52381,1.52381 l 0,27.428571 c 0,0.844191 0.679619,1.52381 1.52381,1.52381 l 94.476195,0 c 0.84419,0 1.5238,-0.679619 1.5238,-1.52381 l 0,-27.428571 c 0,-0.844191 -0.67961,-1.52381 -1.5238,-1.52381 z m 1.571428,3.095238 91.333337,0 0,24.285715 -91.333337,0 z" />
  <path
     style="opacity:0.6;color:#000000;fill:url(#linearGradient3303);fill-opacity:1;fill-rule:nonzero;stroke:none;stroke-width:1.5;marker:none;visibility:visible;display:inline;overflow:visible;enable-background:accumulate"
     id="rect3757"
     inkscape:connector-curvature="0"
     d="m 16.761905,12.190476 c -0.844191,0 -1.52381,0.679619 -1.52381,1.52381 l 0,27.428571 c 0,0.844191 0.679619,1.52381 1.52381,1.52381 l 94.476195,0 c 0.84419,0 1.5238,-0.679619 1.5238,-1.52381 l 0,-27.428571 c 0,-0.844191 -0.67961,-1.52381 -1.5238,-1.52381 z m 0.0477,1.571429 94.380945,0 0,27.333333 -94.380945,0 z" />
  <path
     style="fill:url(#linearGradient3300);fill-opacity:1;fill-rule:nonzero;stroke:none;display:inline"
     id="rect2419-6"
     inkscape:connector-curvature="0"
     d="M 9.142857,0 C 4.077714,0 0,4.077714 0,9.142857 L 0,118.85714 C 0,123.92229 4.077714,128 9.142857,128 l 109.714283,0 C 123.92229,128 128,123.92229 128,118.85714 L 128,9.142857 C 128,4.077714 123.92229,0 118.85714,0 z m 9.142857,10.666667 91.428576,0 c 1.68838,0 3.04761,1.359238 3.04761,3.047619 l 0,27.428571 c 0,1.688381 -1.35923,3.047619 -3.04761,3.047619 l -91.428576,0 c -1.688381,0 -3.047619,-1.359238 -3.047619,-3.047619 l 0,-27.428571 c 0,-1.688381 1.359238,-3.047619 3.047619,-3.047619 z" />
  <rect
     style="fill:none;stroke:url(#linearGradient3297);stroke-width:3.0476191;stroke-linecap:square;stroke-linejoin:round;stroke-miterlimit:4;stroke-opacity:1;stroke-dasharray:none;stroke-dashoffset:0;display:inline"
     id="rect3425"
     y="10.666666"
     x="13.714285"
     ry="3.0476191"
     rx="3.0476191"
     height="33.523811"
     width="100.57143" />
  <path
     style="opacity:0.2;fill:#000000;fill-opacity:1;stroke:none;display:inline"
     id="path3545"
     inkscape:connector-curvature="0"
     d="m 16.952381,48.52381 c -1.479427,0 -2.714286,1.234858 -2.714286,2.714285 l 0,8 c 0,1.479427 1.234857,2.714289 2.714286,2.714286 l 14.857143,0 c 1.479425,0 2.714282,-1.23486 2.714286,-2.714286 l 0,-8 c 0,-1.479427 -1.234861,-2.714285 -2.714286,-2.714285 l -14.857143,0 z" />
  <path
     style="opacity:0.2;fill:#000000;fill-opacity:1;stroke:none;display:inline"
     id="path3543"
     inkscape:connector-curvature="0"
     d="m 42.857143,48.52381 c -1.479427,0 -2.714286,1.234858 -2.714286,2.714285 l 0,8 c 0,1.479427 1.234857,2.714289 2.714286,2.714286 l 14.857143,0 c 1.479425,0 2.714282,-1.23486 2.714285,-2.714286 l 0,-8 c 0,-1.479427 -1.23486,-2.714285 -2.714285,-2.714285 l -14.857143,0 z" />
  <path
     style="opacity:0.2;fill:#000000;fill-opacity:1;stroke:none;display:inline"
     id="path3541"
     inkscape:connector-curvature="0"
     d="m 70.285714,48.52381 c -1.479427,0 -2.714285,1.234858 -2.714285,2.714285 l 0,8 c 0,1.479427 1.234857,2.714289 2.714285,2.714286 l 14.857143,0 c 1.479426,0 2.714283,-1.23486 2.714286,-2.714286 l 0,-8 c 0,-1.479427 -1.23486,-2.714285 -2.714286,-2.714285 l -14.857143,0 z" />
  <path
     style="opacity:0.2;fill:#000000;fill-opacity:1;stroke:none;display:inline"
     id="path3539"
     inkscape:connector-curvature="0"
     d="m 96.19048,48.52381 c -1.47943,0 -2.71429,1.234858 -2.71429,2.714285 l 0,8 c 0,1.479427 1.23486,2.714289 2.71429,2.714286 l 14.85714,0 c 1.47942,0 2.71428,-1.23486 2.71428,-2.714286 l 0,-8 c 0,-1.479427 -1.23486,-2.714285 -2.71428,-2.714285 l -14.85714,0 z" />
  <path
     style="opacity:0.2;fill:#000000;fill-opacity:1;stroke:none;display:inline"
     id="path3537"
     inkscape:connector-curvature="0"
     d="m 16.952381,66.809524 c -1.479427,0 -2.714286,1.234858 -2.714286,2.714286 l 0,8 c 0,1.479427 1.234857,2.714288 2.714286,2.714285 l 14.857143,0 c 1.479425,0 2.714282,-1.23486 2.714286,-2.714285 l 0,-8 c 0,-1.479428 -1.234861,-2.714286 -2.714286,-2.714286 l -14.857143,0 z" />
  <path
     style="opacity:0.2;fill:#000000;fill-opacity:1;stroke:none;display:inline"
     id="path3535"
     inkscape:connector-curvature="0"
     d="m 42.857143,66.809524 c -1.479427,0 -2.714286,1.234858 -2.714286,2.714286 l 0,8 c 0,1.479427 1.234857,2.714288 2.714286,2.714285 l 14.857143,0 c 1.479425,0 2.714282,-1.23486 2.714285,-2.714285 l 0,-8 c 0,-1.479428 -1.23486,-2.714286 -2.714285,-2.714286 l -14.857143,0 z" />
  <path
     style="opacity:0.2;fill:#000000;fill-opacity:1;stroke:none;display:inline"
     id="path3533"
     inkscape:connector-curvature="0"
     d="m 70.285714,66.809524 c -1.479427,0 -2.714285,1.234858 -2.714285,2.714286 l 0,8 c 0,1.479427 1.234857,2.714288 2.714285,2.714285 l 14.857143,0 c 1.479426,0 2.714283,-1.23486 2.714286,-2.714285 l 0,-8 c 0,-1.479428 -1.23486,-2.714286 -2.714286,-2.714286 l -14.857143,0 z" />
  <path
     style="opacity:0.2;fill:#000000;fill-opacity:1;stroke:none;display:inline"
     id="path3531"
     inkscape:connector-curvature="0"
     d="m 96.19048,66.809524 c -1.47943,0 -2.71429,1.234858 -2.71429,2.714286 l 0,8 c 0,1.479427 1.23486,2.714288 2.71429,2.714285 l 14.85714,0 c 1.47942,0 2.71428,-1.23486 2.71428,-2.714285 l 0,-8 c 0,-1.479428 -1.23486,-2.714286 -2.71428,-2.714286 l -14.85714,0 z" />
  <path
     style="opacity:0.2;fill:#000000;fill-opacity:1;stroke:none;display:inline"
     id="path3529"
     inkscape:connector-curvature="0"
     d="m 16.952381,85.095238 c -1.479427,0 -2.714286,1.234859 -2.714286,2.714286 l 0,8 c 0,1.479427 1.234857,2.714289 2.714286,2.714286 l 14.857143,0 c 1.479425,0 2.714282,-1.234861 2.714286,-2.714286 l 0,-8 c 0,-1.479427 -1.234861,-2.714286 -2.714286,-2.714286 l -14.857143,0 z" />
  <path
     style="opacity:0.2;fill:#000000;fill-opacity:1;stroke:none;display:inline"
     id="path3527"
     inkscape:connector-curvature="0"
     d="m 42.857143,85.095238 c -1.479427,0 -2.714286,1.234859 -2.714286,2.714286 l 0,8 c 0,1.479427 1.234857,2.714289 2.714286,2.714286 l 14.857143,0 c 1.479425,0 2.714282,-1.234861 2.714285,-2.714286 l 0,-8 c 0,-1.479427 -1.23486,-2.714286 -2.714285,-2.714286 l -14.857143,0 z" />
  <path
     style="opacity:0.2;fill:#000000;fill-opacity:1;stroke:none;display:inline"
     id="path3525"
     inkscape:connector-curvature="0"
     d="m 70.285714,85.095238 c -1.479427,0 -2.714285,1.234859 -2.714285,2.714286 l 0,8 c 0,1.479427 1.234857,2.714289 2.714285,2.714286 l 14.857143,0 c 1.479426,0 2.714283,-1.234861 2.714286,-2.714286 l 0,-8 c 0,-1.479427 -1.23486,-2.714286 -2.714286,-2.714286 l -14.857143,0 z" />
  <path
     style="opacity:0.2;fill:#000000;fill-opacity:1;stroke:none;display:inline"
     id="path3523"
     inkscape:connector-curvature="0"
     d="m 96.19048,85.095238 c -1.47943,0 -2.71429,1.234859 -2.71429,2.714286 l 0,8 c 0,1.479427 1.23486,2.714289 2.71429,2.714286 l 14.85714,0 c 1.47942,0 2.71428,-1.234861 2.71428,-2.714286 l 0,-8 c 0,-1.479427 -1.23486,-2.714286 -2.71428,-2.714286 l -14.85714,0 z" />
  <path
     style="opacity:0.2;fill:#000000;fill-opacity:1;stroke:none;display:inline"
     id="path3521"
     inkscape:connector-curvature="0"
     d="m 16.952381,103.38095 c -1.479427,0 -2.714286,1.23486 -2.714286,2.71429 l 0,8 c 0,1.47942 1.234857,2.71429 2.714286,2.71428 l 14.857143,0 c 1.479425,0 2.714282,-1.23486 2.714286,-2.71428 l 0,-8 c 0,-1.47943 -1.234861,-2.71429 -2.714286,-2.71429 l -14.857143,0 z" />
  <path
     style="opacity:0.2;fill:#000000;fill-opacity:1;stroke:none;display:inline"
     id="path3519"
     inkscape:connector-curvature="0"
     d="m 42.857143,103.38095 c -1.479429,0 -2.714286,1.23486 -2.714286,2.71429 l 0,8 c 0,1.47942 1.234859,2.71428 2.714286,2.71428 l 14.857143,0 c 1.479425,0 2.714285,-1.23486 2.714285,-2.71428 l 0,-8 c -3e-6,-1.47943 -1.23486,-2.71429 -2.714285,-2.71429 l -14.857143,0 z" />
  <path
     style="opacity:0.2;fill:#000000;fill-opacity:1;stroke:none;display:inline"
     id="path3517"
     inkscape:connector-curvature="0"
     d="m 70.285714,103.38095 c -1.479427,0 -2.714285,1.23486 -2.714285,2.71429 l 0,8 c 0,1.47942 1.234857,2.71429 2.714285,2.71428 l 14.857143,0 c 1.479426,0 2.714283,-1.23486 2.714286,-2.71428 l 0,-8 c 0,-1.47943 -1.23486,-2.71429 -2.714286,-2.71429 l -14.857143,0 z" />
  <path
     style="opacity:0.2;fill:#000000;fill-opacity:1;stroke:none;display:inline"
     id="path3773"
     inkscape:connector-curvature="0"
     d="m 96.19048,103.38095 c -1.47943,0 -2.71429,1.23486 -2.71429,2.71429 l 0,8 c 0,1.47942 1.23486,2.71429 2.71429,2.71428 l 14.85714,0 c 1.47942,0 2.71428,-1.23486 2.71428,-2.71428 l 0,-8 c 0,-1.47943 -1.23486,-2.71429 -2.71428,-2.71429 l -14.85714,0 z" />
  <path
     style="opacity:0.6;fill:#000000;fill-opacity:1;stroke:none;display:inline"
     id="path3512"
     inkscape:connector-curvature="0"
     d="m 16.952381,49.52381 c -0.949714,0 -1.714286,0.764571 -1.714286,1.714285 l 0,8 c 0,0.949715 0.764572,1.714287 1.714286,1.714286 l 14.857143,0 c 0.949714,0 1.714286,-0.76457 1.714286,-1.714286 l 0,-8 c 0,-0.949714 -0.764572,-1.714285 -1.714286,-1.714285 l -14.857143,0 z" />
  <path
     style="opacity:0.6;fill:#000000;fill-opacity:1;stroke:none;display:inline"
     id="path3510"
     inkscape:connector-curvature="0"
     d="m 42.857143,49.52381 c -0.949714,0 -1.714286,0.764571 -1.714286,1.714285 l 0,8 c 0,0.949715 0.764572,1.714287 1.714286,1.714286 l 14.857143,0 c 0.949714,0 1.714285,-0.76457 1.714285,-1.714286 l 0,-8 c 0,-0.949714 -0.764571,-1.714285 -1.714285,-1.714285 l -14.857143,0 z" />
  <path
     style="opacity:0.6;fill:#000000;fill-opacity:1;stroke:none;display:inline"
     id="path3508"
     inkscape:connector-curvature="0"
     d="m 70.285714,49.52381 c -0.949714,0 -1.714285,0.764571 -1.714285,1.714285 l 0,8 c 0,0.949715 0.764571,1.714287 1.714285,1.714286 l 14.857143,0 c 0.949714,0 1.714286,-0.76457 1.714286,-1.714286 l 0,-8 c 0,-0.949714 -0.764572,-1.714285 -1.714286,-1.714285 l -14.857143,0 z" />
  <path
     style="opacity:0.6;fill:#000000;fill-opacity:1;stroke:none;display:inline"
     id="path3506"
     inkscape:connector-curvature="0"
     d="m 96.19048,49.52381 c -0.94972,0 -1.71429,0.764571 -1.71429,1.714285 l 0,8 c 0,0.949715 0.76457,1.714287 1.71429,1.714286 l 14.85714,0 c 0.94971,0 1.71428,-0.76457 1.71428,-1.714286 l 0,-8 c 0,-0.949714 -0.76457,-1.714285 -1.71428,-1.714285 l -14.85714,0 z" />
  <path
     style="opacity:0.6;fill:#000000;fill-opacity:1;stroke:none;display:inline"
     id="path3504"
     inkscape:connector-curvature="0"
     d="m 16.952381,67.809524 c -0.949714,0 -1.714286,0.764571 -1.714286,1.714286 l 0,8 c 0,0.949714 0.764572,1.714287 1.714286,1.714285 l 14.857143,0 c 0.949714,0 1.714286,-0.76457 1.714286,-1.714285 l 0,-8 c 0,-0.949715 -0.764572,-1.714286 -1.714286,-1.714286 l -14.857143,0 z" />
  <path
     style="opacity:0.6;fill:#000000;fill-opacity:1;stroke:none;display:inline"
     id="path3502"
     inkscape:connector-curvature="0"
     d="m 42.857143,67.809524 c -0.949714,0 -1.714286,0.764571 -1.714286,1.714286 l 0,8 c 0,0.949714 0.764572,1.714287 1.714286,1.714285 l 14.857143,0 c 0.949714,0 1.714285,-0.76457 1.714285,-1.714285 l 0,-8 c 0,-0.949715 -0.764571,-1.714286 -1.714285,-1.714286 l -14.857143,0 z" />
  <path
     style="opacity:0.6;fill:#000000;fill-opacity:1;stroke:none;display:inline"
     id="path3500"
     inkscape:connector-curvature="0"
     d="m 70.285714,67.809524 c -0.949714,0 -1.714285,0.764571 -1.714285,1.714286 l 0,8 c 0,0.949714 0.764571,1.714287 1.714285,1.714285 l 14.857143,0 c 0.949714,0 1.714286,-0.76457 1.714286,-1.714285 l 0,-8 c 0,-0.949715 -0.764572,-1.714286 -1.714286,-1.714286 l -14.857143,0 z" />
  <path
     style="opacity:0.6;fill:#000000;fill-opacity:1;stroke:none;display:inline"
     id="path3498"
     inkscape:connector-curvature="0"
     d="m 96.19048,67.809524 c -0.94972,0 -1.71429,0.764571 -1.71429,1.714286 l 0,8 c 0,0.949714 0.76457,1.714287 1.71429,1.714285 l 14.85714,0 c 0.94971,0 1.71428,-0.76457 1.71428,-1.714285 l 0,-8 c 0,-0.949715 -0.76457,-1.714286 -1.71428,-1.714286 l -14.85714,0 z" />
  <path
     style="opacity:0.6;fill:#000000;fill-opacity:1;stroke:none;display:inline"
     id="path3496"
     inkscape:connector-curvature="0"
     d="m 16.952381,86.095238 c -0.949714,0 -1.714286,0.764572 -1.714286,1.714286 l 0,8 c 0,0.949714 0.764572,1.714287 1.714286,1.714286 l 14.857143,0 c 0.949714,0 1.714286,-0.76457 1.714286,-1.714286 l 0,-8 c 0,-0.949714 -0.764572,-1.714286 -1.714286,-1.714286 l -14.857143,0 z" />
  <path
     style="opacity:0.6;fill:#000000;fill-opacity:1;stroke:none;display:inline"
     id="path3494"
     inkscape:connector-curvature="0"
     d="m 42.857143,86.095238 c -0.949714,0 -1.714286,0.764572 -1.714286,1.714286 l 0,8 c 0,0.949714 0.764572,1.714287 1.714286,1.714286 l 14.857143,0 c 0.949714,0 1.714285,-0.76457 1.714285,-1.714286 l 0,-8 c 0,-0.949714 -0.764571,-1.714286 -1.714285,-1.714286 l -14.857143,0 z" />
  <path
     style="opacity:0.6;fill:#000000;fill-opacity:1;stroke:none;display:inline"
     id="path3492"
     inkscape:connector-curvature="0"
     d="m 70.285714,86.095238 c -0.949714,0 -1.714285,0.764572 -1.714285,1.714286 l 0,8 c 0,0.949714 0.764571,1.714287 1.714285,1.714286 l 14.857143,0 c 0.949714,0 1.714286,-0.76457 1.714286,-1.714286 l 0,-8 c 0,-0.949714 -0.764572,-1.714286 -1.714286,-1.714286 l -14.857143,0 z" />
  <path
     style="opacity:0.6;fill:#000000;fill-opacity:1;stroke:none;display:inline"
     id="path3490"
     inkscape:connector-curvature="0"
     d="m 96.19048,86.095238 c -0.94972,0 -1.71429,0.764572 -1.71429,1.714286 l 0,8 c 0,0.949714 0.76457,1.714287 1.71429,1.714286 l 14.85714,0 c 0.94971,0 1.71428,-0.76457 1.71428,-1.714286 l 0,-8 c 0,-0.949714 -0.76457,-1.714286 -1.71428,-1.714286 l -14.85714,0 z" />
  <path
     style="opacity:0.6;fill:#000000;fill-opacity:1;stroke:none;display:inline"
     id="path3488"
     inkscape:connector-curvature="0"
     d="m 16.952381,104.38095 c -0.949714,0 -1.714286,0.76457 -1.714286,1.71429 l 0,8 c 0,0.94971 0.764572,1.71428 1.714286,1.71428 l 14.857143,0 c 0.949714,0 1.714286,-0.76457 1.714286,-1.71428 l 0,-8 c 0,-0.94972 -0.764572,-1.71429 -1.714286,-1.71429 l -14.857143,0 z" />
  <path
     style="opacity:0.6;fill:#000000;fill-opacity:1;stroke:none;display:inline"
     id="path3486"
     inkscape:connector-curvature="0"
     d="m 42.857143,104.38095 c -0.949714,0 -1.714286,0.76457 -1.714286,1.71429 l 0,8 c 0,0.94971 0.764572,1.71428 1.714286,1.71428 l 14.857143,0 c 0.949714,0 1.714285,-0.76457 1.714285,-1.71428 l 0,-8 c 0,-0.94972 -0.764571,-1.71429 -1.714285,-1.71429 l -14.857143,0 z" />
  <path
     style="opacity:0.6;fill:#000000;fill-opacity:1;stroke:none;display:inline"
     id="path3484"
     inkscape:connector-curvature="0"
     d="m 70.285714,104.38095 c -0.949714,0 -1.714285,0.76457 -1.714285,1.71429 l 0,8 c 0,0.94971 0.764571,1.71428 1.714285,1.71428 l 14.857143,0 c 0.949714,0 1.714286,-0.76457 1.714286,-1.71428 l 0,-8 c 0,-0.94972 -0.764572,-1.71429 -1.714286,-1.71429 l -14.857143,0 z" />
  <path
     style="opacity:0.6;fill:#000000;fill-opacity:1;stroke:none;display:inline"
     id="rect3636"
     inkscape:connector-curvature="0"
     d="m 96.19048,104.38095 c -0.94972,0 -1.71429,0.76457 -1.71429,1.71429 l 0,8 c 0,0.94971 0.76457,1.71428 1.71429,1.71428 l 14.85714,0 c 0.94971,0 1.71428,-0.76457 1.71428,-1.71428 l 0,-8 c 0,-0.94972 -0.76457,-1.71429 -1.71428,-1.71429 l -14.85714,0 z" />
  <rect
     style="fill:url(#linearGradient3262);fill-opacity:1;stroke:none;display:inline"
     id="rect3786"
     y="85.333328"
     x="15.238094"
     ry="1.7142862"
     rx="1.7142857"
     height="11.428574"
     width="18.285713" />
  <path
     style="font-size:9px;font-style:normal;font-variant:normal;font-weight:bold;font-stretch:normal;text-align:start;line-height:100%;writing-mode:lr-tb;text-anchor:start;fill:#ffffff;fill-opacity:1;stroke:none;display:inline;font-family:Liberation Sans;-inkscape-font-specification:Liberation Sans Bold"
     id="text3826"
     inkscape:connector-curvature="0"
     d="m 21.98782,94.585836 0,-1.049665 1.752788,0 0,-4.826452 -1.697542,1.059709 0,-1.109932 1.772879,-1.150112 1.335938,0 0,6.026787 1.622208,0 0,1.049665 -4.786271,0" />
  <rect
     style="fill:url(#linearGradient3258);fill-opacity:1;stroke:none;display:inline"
     id="rect3798"
     y="85.333328"
     x="41.142857"
     ry="1.7142862"
     rx="1.7142857"
     height="11.428574"
     width="18.285713" />
  <path
     style="font-size:9px;font-style:normal;font-variant:normal;font-weight:bold;font-stretch:normal;text-align:start;line-height:100%;writing-mode:lr-tb;text-anchor:start;fill:#ffffff;fill-opacity:1;stroke:none;display:inline;font-family:Liberation Sans;-inkscape-font-specification:Liberation Sans Bold"
     id="text3830"
     inkscape:connector-curvature="0"
     d="m 47.809713,94.638571 0,-0.979353 c 0.160714,-0.351562 0.356583,-0.667966 0.587611,-0.949219 0.231026,-0.284596 0.472098,-0.544081 0.723215,-0.778458 0.254463,-0.237723 0.505579,-0.45703 0.753347,-0.657927 0.251115,-0.204238 0.475446,-0.400107 0.672992,-0.587612 0.20089,-0.190845 0.363278,-0.381693 0.487164,-0.572544 0.12387,-0.190843 0.185818,-0.393411 0.185828,-0.607701 -1e-5,-0.314728 -0.07869,-0.547427 -0.236056,-0.698103 -0.157361,-0.150659 -0.38839,-0.225998 -0.693074,-0.226005 -0.301343,7e-6 -0.532369,0.08204 -0.693081,0.246095 -0.157368,0.160719 -0.259488,0.403465 -0.30636,0.728236 l -1.421318,-0.08035 c 0.03348,-0.277897 0.102126,-0.539056 0.205915,-0.783482 0.103787,-0.244413 0.251115,-0.458699 0.441965,-0.642857 0.194194,-0.184145 0.435267,-0.328116 0.723213,-0.43192 0.291293,-0.107139 0.637833,-0.160707 1.039621,-0.160713 0.38169,6e-6 0.719861,0.04521 1.014513,0.135604 0.294628,0.08705 0.5424,0.215965 0.743303,0.386719 0.200879,0.170765 0.353222,0.380027 0.457029,0.627789 0.103786,0.244427 0.15568,0.524002 0.15569,0.838728 -10e-6,0.331479 -0.06529,0.631144 -0.195873,0.898996 -0.130591,0.267861 -0.297989,0.515628 -0.502229,0.743303 -0.204252,0.224334 -0.43192,0.435272 -0.68304,0.632813 -0.247772,0.197548 -0.488834,0.390072 -0.72321,0.577569 -0.234378,0.187502 -0.448664,0.376675 -0.642857,0.56752 -0.190849,0.190851 -0.333149,0.395093 -0.426896,0.612724 l 3.284597,0 0,1.160157 -4.952009,0" />
  <rect
     style="fill:url(#linearGradient3254);fill-opacity:1;stroke:none;display:inline"
     id="rect3810"
     y="85.333328"
     x="68.571426"
     ry="1.7142862"
     rx="1.7142857"
     height="11.428574"
     width="18.285713" />
  <path
     style="font-size:9px;font-style:normal;font-variant:normal;font-weight:bold;font-stretch:normal;text-align:start;line-height:100%;writing-mode:lr-tb;text-anchor:start;fill:#ffffff;fill-opacity:1;stroke:none;display:inline;font-family:Liberation Sans;-inkscape-font-specification:Liberation Sans Bold"
     id="text3834"
     inkscape:connector-curvature="0"
     d="m 80.270653,92.617086 c 0,0.32143 -0.05358,0.61105 -0.160712,0.868863 -0.103817,0.254464 -0.261167,0.472097 -0.4721,0.652901 -0.210934,0.180804 -0.473779,0.319754 -0.788509,0.416851 -0.311377,0.09374 -0.674653,0.140633 -1.089841,0.140633 -0.462057,0 -0.852128,-0.05859 -1.170197,-0.175782 -0.314731,-0.117181 -0.574222,-0.271205 -0.778464,-0.462054 -0.200889,-0.194196 -0.353232,-0.413503 -0.457029,-0.657922 -0.100449,-0.244419 -0.165739,-0.492187 -0.195872,-0.743305 l 1.436393,-0.125562 c 0.02008,0.150674 0.05691,0.289621 0.110492,0.416852 0.05691,0.123885 0.132251,0.231028 0.225994,0.321428 0.09374,0.09041 0.207594,0.160716 0.341524,0.210937 0.137265,0.04687 0.297993,0.07031 0.482134,0.07031 0.338171,2e-6 0.601016,-0.0837 0.788507,-0.251116 0.187493,-0.167409 0.281245,-0.423548 0.281257,-0.768415 -1.2e-5,-0.210934 -0.04521,-0.380019 -0.135604,-0.507254 -0.08705,-0.127223 -0.199213,-0.22433 -0.336495,-0.291296 -0.133928,-0.07031 -0.279581,-0.117181 -0.43694,-0.140618 -0.157372,-0.02344 -0.306362,-0.03515 -0.446997,-0.03515 l -0.492179,0 0,-1.140068 0.462059,0 c 0.140617,6e-6 0.282907,-0.01341 0.426895,-0.04018 0.147307,-0.02679 0.279567,-0.07534 0.396762,-0.145646 0.117181,-0.07031 0.21261,-0.167407 0.286272,-0.291296 0.07365,-0.127223 0.110491,-0.287941 0.110491,-0.482143 0,-0.291289 -0.08203,-0.518968 -0.246095,-0.683035 -0.160711,-0.167406 -0.396762,-0.251112 -0.70814,-0.251116 -0.291302,4e-6 -0.527352,0.08037 -0.708152,0.241071 -0.177462,0.160719 -0.279581,0.388398 -0.306362,0.683036 l -1.411276,-0.10045 c 0.04018,-0.331467 0.13059,-0.619413 0.2712,-0.86384 0.143984,-0.244411 0.32311,-0.446979 0.537395,-0.6077 0.217638,-0.160707 0.467074,-0.279569 0.748319,-0.356583 0.281257,-0.08035 0.57925,-0.120534 0.893981,-0.120534 0.415174,8e-6 0.771759,0.05022 1.069764,0.150675 0.297969,0.100449 0.5424,0.236054 0.733258,0.406806 0.190832,0.170766 0.331454,0.369984 0.421866,0.597657 0.09039,0.227684 0.135604,0.47043 0.135604,0.728236 0,0.207595 -0.03014,0.401792 -0.09041,0.58259 -0.06028,0.177459 -0.15235,0.338175 -0.276228,0.482143 -0.120549,0.140632 -0.276229,0.262839 -0.467074,0.36663 -0.190857,0.10045 -0.416862,0.175784 -0.678019,0.226005 l 0,0.02008 c 0.29129,0.03348 0.54409,0.10045 0.758376,0.200893 0.214286,0.0971 0.390057,0.21931 0.527339,0.36663 0.137264,0.147322 0.23939,0.314735 0.306361,0.502233 0.06696,0.184153 0.10045,0.380024 0.10045,0.587611" />
  <rect
     style="fill:url(#linearGradient3250);fill-opacity:1;stroke:none;display:inline"
     id="rect3380"
     y="85.333328"
     x="94.476189"
     ry="1.7142862"
     rx="1.7142857"
     height="11.428574"
     width="18.285713" />
  <path
     style="font-size:10px;font-style:normal;font-variant:normal;font-weight:bold;font-stretch:normal;text-align:start;line-height:100%;writing-mode:lr-tb;text-anchor:start;fill:#ffffff;fill-opacity:1;stroke:none;display:inline;font-family:Liberation Sans;-inkscape-font-specification:Liberation Sans Bold"
     id="text3870"
     inkscape:connector-curvature="0"
     d="m 104.24126,91.67261 0,2.276786 -1.26117,0 0,-2.276786 -2.22655,0 0,-1.250001 2.22655,0 0,-2.276785 1.26117,0 0,2.276785 2.24331,0 0,1.250001 -2.24331,0" />
  <rect
     style="fill:url(#linearGradient3246);fill-opacity:1;stroke:none;display:inline"
     id="rect3790"
     y="67.047623"
     x="15.238094"
     ry="1.7142862"
     rx="1.7142857"
     height="11.428574"
     width="18.285713" />
  <path
     style="font-size:9px;font-style:normal;font-variant:normal;font-weight:bold;font-stretch:normal;text-align:start;line-height:100%;writing-mode:lr-tb;text-anchor:start;fill:#ffffff;fill-opacity:1;stroke:none;display:inline;font-family:Liberation Sans;-inkscape-font-specification:Liberation Sans Bold"
     id="text3838"
     inkscape:connector-curvature="0"
     d="m 26.191503,74.858722 0,1.441408 -1.345982,0 0,-1.441408 -3.219308,0 0,-1.059709 2.98828,-4.575338 1.57701,0 0,4.585383 0.944195,0 0,1.049664 -0.944195,0 m -1.345982,-3.364956 c -5e-6,-0.05691 -5e-6,-0.130575 0,-0.220983 0.0034,-0.09374 0.0067,-0.189167 0.01006,-0.286272 0.0067,-0.0971 0.01173,-0.189167 0.01509,-0.276227 0.0067,-0.09039 0.01341,-0.160708 0.02008,-0.210936 -0.01675,0.03683 -0.04354,0.09041 -0.08035,0.160713 -0.03683,0.06697 -0.07869,0.140632 -0.125562,0.220981 -0.04353,0.07701 -0.09041,0.154024 -0.140632,0.231027 -0.04687,0.07701 -0.08873,0.143984 -0.125562,0.200894 l -1.6423,2.496095 2.069198,0 0,-2.315292" />
  <rect
     style="fill:url(#linearGradient3242);fill-opacity:1;stroke:none;display:inline"
     id="rect3800"
     y="67.047623"
     x="41.142857"
     ry="1.7142862"
     rx="1.7142857"
     height="11.428574"
     width="18.285713" />
  <path
     style="font-size:9px;font-style:normal;font-variant:normal;font-weight:bold;font-stretch:normal;text-align:start;line-height:100%;writing-mode:lr-tb;text-anchor:start;fill:#ffffff;fill-opacity:1;stroke:none;display:inline;font-family:Liberation Sans;-inkscape-font-specification:Liberation Sans Bold"
     id="text3842"
     inkscape:connector-curvature="0"
     d="m 52.844591,73.894437 c -1.2e-5,0.35491 -0.05693,0.683037 -0.170765,0.984373 -0.110492,0.297993 -0.276229,0.55748 -0.497201,0.778462 -0.220994,0.217634 -0.495543,0.388394 -0.823668,0.512276 -0.324777,0.120534 -0.701452,0.180803 -1.130019,0.180805 -0.39509,-2e-6 -0.739957,-0.04687 -1.034597,-0.140617 -0.294645,-0.0971 -0.544087,-0.229355 -0.748327,-0.396764 -0.200893,-0.170759 -0.359933,-0.369979 -0.47712,-0.597658 -0.113844,-0.227677 -0.192523,-0.472097 -0.236049,-0.733258 l 1.411273,-0.11552 c 0.02679,0.110491 0.06362,0.217635 0.110492,0.321427 0.05022,0.103802 0.118857,0.195874 0.205915,0.276227 0.08706,0.08037 0.194193,0.145646 0.321428,0.195872 0.127238,0.04687 0.281248,0.07031 0.462054,0.07031 0.351558,2e-6 0.631134,-0.112168 0.838723,-0.336494 0.210936,-0.224329 0.316411,-0.547433 0.316411,-0.969309 0,-0.187497 -0.02679,-0.356582 -0.08035,-0.507254 -0.05022,-0.15066 -0.123901,-0.279572 -0.220983,-0.386719 -0.09376,-0.107139 -0.210949,-0.18917 -0.351566,-0.246095 -0.13728,-0.05691 -0.294644,-0.08538 -0.472097,-0.08538 -0.234377,4e-6 -0.426899,0.04521 -0.577567,0.135604 -0.150674,0.08705 -0.277903,0.194198 -0.381696,0.321429 l -1.376116,0 0.246094,-3.982705 4.253908,0 0,1.049669 -2.973216,0 -0.11552,1.787946 c 0.140617,-0.123885 0.318078,-0.229348 0.532366,-0.316406 0.214284,-0.09039 0.463724,-0.135604 0.748326,-0.135604 0.34821,4e-6 0.659593,0.05693 0.934153,0.170759 0.274548,0.113844 0.507246,0.272883 0.698103,0.47712 0.190845,0.204246 0.33649,0.450338 0.436937,0.738281 0.100449,0.284601 0.150659,0.601008 0.150674,0.94922" />
  <rect
     style="fill:url(#linearGradient3238);fill-opacity:1;stroke:none;display:inline"
     id="rect3812"
     y="67.047623"
     x="68.571426"
     ry="1.7142862"
     rx="1.7142857"
     height="11.428574"
     width="18.285713" />
  <path
     style="font-size:9px;font-style:normal;font-variant:normal;font-weight:bold;font-stretch:normal;text-align:start;line-height:100%;writing-mode:lr-tb;text-anchor:start;fill:#ffffff;fill-opacity:1;stroke:none;display:inline;font-family:Liberation Sans;-inkscape-font-specification:Liberation Sans Bold"
     id="text3846"
     inkscape:connector-curvature="0"
     d="m 80.200341,73.987349 c -1.2e-5,0.354912 -0.05024,0.681363 -0.150674,0.979353 -0.100449,0.294644 -0.251112,0.549108 -0.452,0.763393 -0.19755,0.21094 -0.445321,0.376675 -0.743302,0.497212 -0.297993,0.117181 -0.642869,0.175779 -1.034603,0.175779 -0.833702,0 -1.474895,-0.291293 -1.923543,-0.873884 -0.445309,-0.585936 -0.667975,-1.453124 -0.667975,-2.601562 0,-1.262273 0.226007,-2.211491 0.678019,-2.84766 0.455352,-0.6395 1.104902,-0.959255 1.948649,-0.959261 0.281257,6e-6 0.537396,0.03014 0.768431,0.09041 0.23101,0.05693 0.43694,0.150674 0.61774,0.281249 0.1808,0.130591 0.334819,0.299673 0.462058,0.507255 0.127207,0.20425 0.229345,0.453692 0.306361,0.748328 l -1.330921,0.185827 c -0.06697,-0.247762 -0.175783,-0.425218 -0.32645,-0.532367 -0.150674,-0.110492 -0.326464,-0.165731 -0.52734,-0.165736 -0.37835,5e-6 -0.676343,0.189179 -0.893981,0.567522 -0.214286,0.378354 -0.321423,0.952573 -0.321423,1.722656 0.150659,-0.251112 0.359923,-0.443635 0.627797,-0.577567 0.267848,-0.133928 0.570871,-0.200888 0.909042,-0.200893 0.311365,5e-6 0.592622,0.0519 0.843746,0.155691 0.25445,0.100449 0.470412,0.247773 0.647873,0.441966 0.1808,0.190851 0.319746,0.425226 0.416851,0.703123 0.0971,0.277905 0.145645,0.590964 0.145645,0.939176 m -1.416291,0.04018 c 0,-0.190845 -0.02176,-0.361605 -0.06529,-0.512276 -0.04354,-0.154016 -0.110491,-0.284596 -0.20089,-0.391742 -0.08706,-0.10714 -0.195872,-0.189171 -0.32645,-0.246094 -0.130575,-0.06027 -0.281257,-0.09039 -0.452012,-0.09041 -0.123886,2e-6 -0.247772,0.0201 -0.371657,0.06027 -0.123886,0.04018 -0.234376,0.105463 -0.331469,0.19587 -0.0971,0.08706 -0.175783,0.199223 -0.23605,0.336496 -0.06027,0.13728 -0.09041,0.303015 -0.09041,0.497209 0,0.200895 0.0251,0.388395 0.07534,0.5625 0.05021,0.17411 0.120533,0.326453 0.210933,0.457031 0.09374,0.127238 0.205905,0.22768 0.336495,0.30134 0.130575,0.07031 0.277893,0.105462 0.441969,0.105462 0.318069,2e-6 0.565841,-0.112167 0.7433,-0.336495 0.177448,-0.227677 0.266186,-0.540736 0.266186,-0.939174" />
  <rect
     style="fill:url(#linearGradient3234);fill-opacity:1;stroke:none;display:inline"
     id="rect3372"
     y="67.047623"
     x="94.476189"
     ry="1.7142862"
     rx="1.7142857"
     height="11.428574"
     width="18.285713" />
  <path
     style="font-size:10px;font-style:normal;font-variant:normal;font-weight:bold;font-stretch:normal;text-align:start;line-height:100%;writing-mode:lr-tb;text-anchor:start;fill:#ffffff;fill-opacity:1;stroke:none;display:inline;font-family:Liberation Sans;-inkscape-font-specification:Liberation Sans Bold"
     id="text3874"
     inkscape:connector-curvature="0"
     d="m 101.15857,73.442706 0,-1.361607 4.92097,0 0,1.361607 -4.92097,0" />
  <rect
     style="fill:url(#linearGradient3230);fill-opacity:1;stroke:none;display:inline"
     id="rect3794"
     y="48.761906"
     x="15.238094"
     ry="1.7142862"
     rx="1.7142857"
     height="11.428574"
     width="18.285713" />
  <path
     style="font-size:9px;font-style:normal;font-variant:normal;font-weight:bold;font-stretch:normal;text-align:start;line-height:100%;writing-mode:lr-tb;text-anchor:start;fill:#ffffff;fill-opacity:1;stroke:none;display:inline;font-family:Liberation Sans;-inkscape-font-specification:Liberation Sans Bold"
     id="text3850"
     inkscape:connector-curvature="0"
     d="m 26.794181,52.057935 c -0.318085,0.502237 -0.619424,0.989402 -0.904019,1.461497 -0.281254,0.472102 -0.527346,0.947549 -0.738279,1.42634 -0.210943,0.475449 -0.378353,0.965961 -0.502234,1.471538 -0.120534,0.502234 -0.180805,1.0346 -0.180803,1.597099 l -1.47154,0 c -2e-6,-0.559151 0.0653,-1.089841 0.19587,-1.592075 0.133928,-0.505578 0.314731,-0.997766 0.542411,-1.476562 0.227675,-0.478791 0.492184,-0.950889 0.793527,-1.416297 0.301336,-0.468745 0.619416,-0.945865 0.954241,-1.431361 l -3.515625,0 0,-1.160156 4.826451,0 0,1.119977" />
  <rect
     style="fill:url(#linearGradient3226);fill-opacity:1;stroke:none;display:inline"
     id="rect3802"
     y="48.761906"
     x="41.142857"
     ry="1.7142862"
     rx="1.7142857"
     height="11.428574"
     width="18.285713" />
  <path
     style="font-size:9px;font-style:normal;font-variant:normal;font-weight:bold;font-stretch:normal;text-align:start;line-height:100%;writing-mode:lr-tb;text-anchor:start;fill:#ffffff;fill-opacity:1;stroke:none;display:inline;font-family:Liberation Sans;-inkscape-font-specification:Liberation Sans Bold"
     id="text3854"
     inkscape:connector-curvature="0"
     d="m 52.8245,56.02306 c 0,0.304689 -0.05022,0.585938 -0.150674,0.843748 -0.10045,0.254467 -0.254469,0.475449 -0.462047,0.662949 -0.207599,0.184151 -0.470433,0.328123 -0.788503,0.431918 -0.31809,0.103786 -0.696434,0.155692 -1.135047,0.155692 -0.435271,0 -0.813619,-0.0519 -1.135045,-0.155692 -0.318082,-0.103802 -0.58259,-0.247767 -0.793528,-0.431918 -0.207589,-0.1875 -0.361606,-0.408482 -0.462053,-0.662949 -0.100449,-0.254461 -0.150674,-0.532364 -0.150674,-0.833703 -2e-6,-0.257811 0.04018,-0.485489 0.120533,-0.683037 0.08035,-0.20089 0.1875,-0.373323 0.321428,-0.517298 0.133928,-0.14397 0.287947,-0.257809 0.462054,-0.341518 0.174107,-0.08705 0.353236,-0.145646 0.53739,-0.175781 l 0,-0.02008 c -0.197547,-0.04352 -0.375002,-0.115504 -0.532366,-0.21596 -0.15737,-0.100434 -0.291298,-0.22098 -0.401787,-0.361608 -0.110492,-0.140617 -0.195871,-0.296313 -0.256139,-0.467076 -0.05691,-0.174101 -0.08538,-0.354906 -0.08538,-0.542411 0,-0.281245 0.05022,-0.537383 0.150674,-0.768416 0.103787,-0.231018 0.254464,-0.428564 0.452009,-0.592632 0.197542,-0.164057 0.441963,-0.289615 0.733259,-0.376675 0.294641,-0.09039 0.634485,-0.135589 1.019531,-0.135604 0.411823,6e-6 0.766738,0.04689 1.064726,0.140632 0.301337,0.09041 0.549108,0.219315 0.743303,0.386719 0.194194,0.164068 0.338171,0.361612 0.43192,0.592634 0.09374,0.231034 0.140633,0.485496 0.140633,0.763393 0,0.184156 -0.03014,0.363286 -0.09041,0.537388 -0.05693,0.170765 -0.140632,0.326455 -0.251119,0.467075 -0.110492,0.140633 -0.246092,0.259495 -0.406801,0.356587 -0.157371,0.0971 -0.336503,0.165742 -0.537394,0.205916 l 0,0.02008 c 0.207588,0.03348 0.400114,0.09542 0.577566,0.185826 0.1808,0.08706 0.336491,0.202571 0.467074,0.34654 0.130575,0.140632 0.232698,0.311386 0.306366,0.512276 0.07366,0.197548 0.110492,0.421877 0.110492,0.672992 m -1.627229,-3.229361 c 0,-0.140617 -0.01509,-0.269525 -0.0452,-0.386718 -0.03014,-0.120534 -0.08035,-0.22265 -0.150659,-0.306361 -0.07032,-0.08705 -0.165748,-0.154013 -0.286274,-0.200894 -0.117196,-0.05021 -0.266188,-0.07532 -0.44699,-0.07534 -0.174109,6e-6 -0.319756,0.02511 -0.436941,0.07534 -0.117197,0.04689 -0.210938,0.113844 -0.28125,0.200894 -0.07031,0.08372 -0.120533,0.185829 -0.150674,0.306361 -0.03014,0.117196 -0.0452,0.246098 -0.0452,0.386718 -3e-6,0.123886 0.01173,0.2461 0.03515,0.36663 0.02679,0.120534 0.07366,0.229356 0.140632,0.326451 0.06696,0.09376 0.16071,0.170764 0.28125,0.231027 0.120533,0.06027 0.276225,0.09041 0.467075,0.09041 0.20089,3e-6 0.361607,-0.03013 0.482144,-0.09041 0.12387,-0.06027 0.217623,-0.138941 0.281246,-0.23605 0.06362,-0.0971 0.105463,-0.205911 0.125562,-0.32645 0.0201,-0.120534 0.03014,-0.241067 0.03014,-0.361608 m 0.165737,3.113841 c 0,-0.14397 -0.01675,-0.282921 -0.05022,-0.416852 -0.03014,-0.133928 -0.08706,-0.251115 -0.170766,-0.351564 -0.08035,-0.103787 -0.192526,-0.185823 -0.336491,-0.246092 -0.143969,-0.06362 -0.326455,-0.09542 -0.547433,-0.09542 -0.200896,4e-6 -0.369981,0.03182 -0.507255,0.09542 -0.133927,0.06027 -0.242749,0.142308 -0.326452,0.246092 -0.08037,0.103802 -0.138956,0.224334 -0.17578,0.361608 -0.03348,0.133927 -0.05022,0.276231 -0.05022,0.426898 -2e-6,0.177458 0.01673,0.339844 0.05022,0.487165 0.03683,0.147322 0.0971,0.274555 0.180803,0.381696 0.08705,0.103802 0.200891,0.184152 0.341519,0.241071 0.140617,0.05691 0.316404,0.08538 0.527342,0.08538 0.210936,2e-6 0.385039,-0.02847 0.522319,-0.08538 0.13728,-0.06027 0.246091,-0.14397 0.326456,-0.251116 0.08035,-0.107139 0.135604,-0.234373 0.165738,-0.381696 0.03348,-0.150659 0.05022,-0.316404 0.05022,-0.49721" />
  <rect
     style="fill:url(#linearGradient3222);fill-opacity:1;stroke:none;display:inline"
     id="rect3814"
     y="48.761906"
     x="68.571426"
     ry="1.7142862"
     rx="1.7142857"
     height="11.428574"
     width="18.285713" />
  <path
     style="font-size:9px;font-style:normal;font-variant:normal;font-weight:bold;font-stretch:normal;text-align:start;line-height:100%;writing-mode:lr-tb;text-anchor:start;fill:#ffffff;fill-opacity:1;stroke:none;display:inline;font-family:Liberation Sans;-inkscape-font-specification:Liberation Sans Bold"
     id="text3858"
     inkscape:connector-curvature="0"
     d="m 80.205358,54.365693 c 0,1.255584 -0.229346,2.194757 -0.688051,2.817522 -0.458718,0.622769 -1.109942,0.934152 -1.953689,0.934152 -0.304686,0 -0.579239,-0.0318 -0.823658,-0.09542 -0.241066,-0.06362 -0.452012,-0.162388 -0.632812,-0.296316 -0.180814,-0.133927 -0.334819,-0.306361 -0.462057,-0.517299 -0.123886,-0.210937 -0.222642,-0.462053 -0.296318,-0.753349 l 1.325904,-0.185825 c 0.06696,0.251117 0.175772,0.436943 0.326438,0.557478 0.154019,0.120533 0.346541,0.180804 0.577564,0.180803 0.190857,1e-6 0.361612,-0.0452 0.512291,-0.135604 0.150659,-0.09039 0.279569,-0.227676 0.386718,-0.411829 0.107139,-0.18415 0.189168,-0.416851 0.246096,-0.698103 0.06027,-0.284596 0.09207,-0.619418 0.09542,-1.004464 -0.06696,0.130591 -0.155696,0.246096 -0.266184,0.346539 -0.110491,0.10045 -0.23605,0.184156 -0.376674,0.251116 -0.13728,0.06697 -0.284595,0.118857 -0.441967,0.155693 -0.157359,0.03348 -0.316394,0.05022 -0.477118,0.05022 -0.308038,3e-6 -0.587607,-0.05356 -0.838717,-0.160713 -0.251124,-0.110491 -0.46541,-0.267855 -0.642857,-0.472099 -0.177462,-0.204238 -0.314731,-0.450331 -0.411836,-0.738281 -0.09374,-0.291291 -0.140617,-0.619418 -0.140617,-0.984376 0,-0.374996 0.05524,-0.709815 0.165739,-1.004465 0.113828,-0.294638 0.276228,-0.542403 0.487162,-0.743302 0.210933,-0.204236 0.468737,-0.358254 0.773435,-0.462056 0.308038,-0.107139 0.656241,-0.160707 1.044648,-0.160713 0.408471,6e-6 0.768407,0.07032 1.079785,0.210936 0.314743,0.13728 0.577574,0.351571 0.788507,0.642857 0.210934,0.287955 0.369981,0.654583 0.477117,1.099891 0.110492,0.441967 0.16574,0.967637 0.16574,1.577009 M 78.713749,53.3763 c -1.2e-5,-0.200888 -0.02344,-0.388388 -0.07032,-0.562502 -0.04352,-0.177449 -0.110492,-0.329792 -0.200889,-0.45703 -0.09041,-0.130575 -0.20089,-0.232695 -0.33148,-0.306362 -0.130575,-0.07366 -0.281244,-0.110476 -0.452,-0.110491 -0.157372,7e-6 -0.297993,0.03014 -0.421867,0.09041 -0.123886,0.05693 -0.229359,0.140633 -0.316419,0.251116 -0.08706,0.110492 -0.154019,0.244427 -0.200888,0.401786 -0.04354,0.157372 -0.0653,0.334827 -0.0653,0.532368 0,0.184155 0.02176,0.356589 0.0653,0.517298 0.04352,0.15737 0.107154,0.294648 0.190843,0.411832 0.0837,0.113844 0.189181,0.204246 0.316419,0.271206 0.127208,0.06362 0.272864,0.09542 0.436928,0.09542 0.130591,3e-6 0.257817,-0.02344 0.381702,-0.07031 0.127223,-0.04687 0.239403,-0.117181 0.336495,-0.210937 0.10045,-0.09374 0.1808,-0.210933 0.241079,-0.351564 0.06025,-0.143969 0.09039,-0.311378 0.09039,-0.502231" />
  <rect
     style="fill:url(#linearGradient3218);fill-opacity:1;stroke:none;display:inline"
     id="rect3396"
     y="48.761906"
     x="94.476189"
     ry="1.7142862"
     rx="1.7142857"
     height="11.428574"
     width="18.285713" />
  <path
     style="font-size:8px;font-style:normal;font-variant:normal;font-weight:bold;font-stretch:normal;text-align:start;line-height:100%;writing-mode:lr-tb;text-anchor:start;fill:#ffffff;fill-opacity:1;stroke:none;display:inline;font-family:Liberation Sans;-inkscape-font-specification:Liberation Sans Bold"
     id="text3878"
     inkscape:connector-curvature="0"
     d="m 100.80655,56.677077 c 0.24702,2e-6 0.45982,-0.03422 0.6384,-0.102674 0.18153,-0.07142 0.33779,-0.163689 0.46873,-0.276786 0.13393,-0.113097 0.24405,-0.241068 0.33038,-0.383929 0.0893,-0.142857 0.16218,-0.2872 0.21874,-0.433034 l 1.14731,0.433034 c -0.0923,0.226192 -0.2128,0.44792 -0.3616,0.66518 -0.14881,0.217263 -0.33483,0.409225 -0.55804,0.575892 -0.22321,0.166668 -0.48959,0.302084 -0.7991,0.40625 -0.30655,0.101196 -0.66816,0.151787 -1.08482,0.151787 -0.54465,0 -1.01637,-0.08035 -1.41518,-0.24107 -0.39882,-0.16369 -0.72917,-0.389882 -0.99107,-0.678572 -0.25893,-0.291666 -0.45238,-0.636904 -0.58036,-1.035713 -0.125,-0.39881 -0.1875,-0.83482 -0.1875,-1.308037 0,-0.491069 0.0625,-0.93452 0.1875,-1.330359 0.12797,-0.395829 0.31994,-0.732137 0.5759,-1.008928 0.25595,-0.279756 0.57886,-0.494042 0.96875,-0.642857 0.39285,-0.151787 0.85416,-0.227672 1.38392,-0.227679 0.41072,7e-6 0.76935,0.04315 1.07589,0.129463 0.30952,0.08632 0.57588,0.208342 0.79911,0.366071 0.22618,0.154769 0.4122,0.339292 0.55803,0.553574 0.1488,0.211315 0.26489,0.444945 0.34823,0.700892 l -1.16072,0.316964 c -0.0417,-0.133927 -0.10566,-0.2619 -0.19197,-0.383928 -0.0863,-0.124998 -0.19644,-0.235115 -0.33036,-0.330357 -0.13095,-0.09524 -0.28571,-0.171126 -0.46428,-0.227679 -0.17857,-0.05952 -0.38096,-0.08928 -0.60715,-0.08928 -0.31845,3e-6 -0.59225,0.05208 -0.82142,0.15625 -0.22917,0.101196 -0.41816,0.247029 -0.56696,0.437498 -0.14584,0.190482 -0.25447,0.419648 -0.3259,0.6875 -0.0684,0.264887 -0.10266,0.562505 -0.10266,0.89286 0,0.327382 0.0342,0.627978 0.10266,0.901785 0.0714,0.270836 0.18155,0.504467 0.33036,0.700893 0.14882,0.19643 0.33929,0.349702 0.57143,0.459821 0.23511,0.110125 0.51636,0.165181 0.84375,0.165179 m 3.66963,0.946427 0,-6.290179 4.94643,0 0,1.017858 -3.62945,0 0,1.580356 3.35713,0 0,1.01786 -3.35713,0 0,1.656249 3.8125,0 0,1.017856 -5.12948,0" />
  <rect
     style="fill:url(#linearGradient3214);fill-opacity:1;stroke:none;display:inline"
     id="rect3382"
     y="103.61905"
     x="15.238094"
     ry="1.7142862"
     rx="1.7142857"
     height="11.428574"
     width="18.285713" />
  <path
     style="font-size:9px;font-style:normal;font-variant:normal;font-weight:bold;font-stretch:normal;text-align:start;line-height:100%;writing-mode:lr-tb;text-anchor:start;fill:#ffffff;fill-opacity:1;stroke:none;display:inline;font-family:Liberation Sans;-inkscape-font-specification:Liberation Sans Bold"
     id="text3822"
     inkscape:connector-curvature="0"
     d="m 26.826825,109.33331 c -4e-6,0.67634 -0.06194,1.24721 -0.185825,1.71262 -0.123886,0.46206 -0.296322,0.83705 -0.517299,1.12499 -0.217638,0.28461 -0.477126,0.49052 -0.778461,0.61775 -0.297994,0.12389 -0.624445,0.18583 -0.979352,0.18583 -0.354914,0 -0.681364,-0.0619 -0.979352,-0.18583 -0.297994,-0.12388 -0.554132,-0.32812 -0.768415,-0.61272 -0.214287,-0.28795 -0.381696,-0.66295 -0.502232,-1.125 -0.120534,-0.4654 -0.180805,-1.03795 -0.180805,-1.71764 0,-0.71316 0.05859,-1.30245 0.175782,-1.76785 0.120534,-0.46874 0.28962,-0.84207 0.507255,-1.11998 0.217632,-0.2779 0.477119,-0.47209 0.77846,-0.58259 0.304685,-0.11383 0.641179,-0.17076 1.009487,-0.17076 0.344862,0 0.664617,0.0569 0.959262,0.17076 0.297987,0.1105 0.554126,0.30469 0.768415,0.58259 0.217629,0.27791 0.386714,0.65124 0.507255,1.11998 0.12387,0.4654 0.185821,1.05469 0.185825,1.76785 m -1.416294,0 c -3e-6,-0.49888 -0.01842,-0.91071 -0.05525,-1.23548 -0.03683,-0.32813 -0.09542,-0.58762 -0.175782,-0.77846 -0.08037,-0.1942 -0.185829,-0.3298 -0.316406,-0.40681 -0.127238,-0.077 -0.282925,-0.11551 -0.467075,-0.11552 -0.197548,1e-5 -0.363285,0.0402 -0.49721,0.12053 -0.133927,0.077 -0.242747,0.21261 -0.326451,0.40681 -0.08037,0.1942 -0.138957,0.45536 -0.175781,0.78349 -0.03348,0.32477 -0.05023,0.73325 -0.05023,1.22544 -1e-6,0.48549 0.01841,0.89063 0.05524,1.2154 0.03683,0.32478 0.09542,0.58595 0.175784,0.78349 0.08035,0.19419 0.185822,0.33147 0.316404,0.41183 0.130575,0.0804 0.291293,0.12053 0.482142,0.12053 0.184151,0 0.341516,-0.0402 0.472099,-0.12053 0.130575,-0.0803 0.237721,-0.21764 0.32143,-0.41183 0.0837,-0.19754 0.143969,-0.45871 0.180803,-0.78349 0.04017,-0.32477 0.06027,-0.72991 0.06027,-1.2154" />
  <rect
     style="fill:url(#linearGradient3210);fill-opacity:1;stroke:none;display:inline"
     id="rect3384"
     transform="scale(1,-1)"
     y="-115.04762"
     x="41.142857"
     ry="1.7142862"
     rx="1.7142857"
     height="11.428574"
     width="18.285713" />
  <path
     style="font-size:10px;font-style:normal;font-variant:normal;font-weight:bold;font-stretch:normal;text-align:start;line-height:100%;writing-mode:lr-tb;text-anchor:start;fill:#ffffff;fill-opacity:1;stroke:none;display:inline;font-family:Liberation Sans;-inkscape-font-specification:Liberation Sans Bold"
     id="text3862"
     inkscape:connector-curvature="0"
     d="m 49.479357,112.47004 0,-1.70201 1.612719,0 0,1.70201 -1.612719,0" />
  <rect
     style="fill:url(#linearGradient3206);fill-opacity:1;stroke:none;display:inline"
     id="rect3386"
     y="103.61905"
     x="68.571426"
     ry="1.7142862"
     rx="1.7142857"
     height="11.428574"
     width="18.285713" />
  <path
     style="font-size:9px;font-style:normal;font-variant:normal;font-weight:bold;font-stretch:normal;text-align:start;line-height:100%;writing-mode:lr-tb;text-anchor:start;fill:#ffffff;fill-opacity:1;stroke:none;display:inline;font-family:Liberation Sans;-inkscape-font-specification:Liberation Sans Bold"
     id="text3866"
     inkscape:connector-curvature="0"
     d="m 82.023441,110.70191 c 0,0.41852 -0.04689,0.77176 -0.140617,1.05971 -0.09376,0.28794 -0.220991,0.52064 -0.381701,0.6981 -0.160724,0.17411 -0.349893,0.29966 -0.567518,0.37668 -0.214298,0.077 -0.443644,0.1155 -0.688063,0.1155 -0.251112,0 -0.485486,-0.0385 -0.703112,-0.1155 -0.214297,-0.077 -0.401802,-0.20257 -0.562502,-0.37668 -0.157371,-0.17746 -0.282933,-0.41016 -0.376672,-0.6981 -0.09041,-0.28795 -0.135619,-0.64119 -0.135603,-1.05971 -1.3e-5,-0.44197 0.0452,-0.80692 0.135603,-1.09487 0.09374,-0.29129 0.220965,-0.52232 0.381689,-0.69308 0.160711,-0.1741 0.349879,-0.29464 0.56753,-0.36161 0.220965,-0.0703 0.458691,-0.10546 0.713168,-0.10546 0.241054,0 0.468737,0.0352 0.683023,0.10546 0.214286,0.067 0.400114,0.18751 0.557486,0.36161 0.16071,0.17076 0.286259,0.40179 0.376672,0.69308 0.09374,0.28795 0.140617,0.6529 0.140617,1.09487 m -6.102121,2.16964 -1.034591,0 4.620521,-7.07646 1.049676,0 -4.635606,7.07646 m -0.723214,-7.15681 c 0.241067,10e-6 0.46875,0.0352 0.683035,0.10548 0.214286,0.067 0.401779,0.18583 0.562502,0.35658 0.160711,0.17077 0.287949,0.40179 0.381689,0.69307 0.09376,0.28796 0.140632,0.65292 0.140632,1.09487 0,0.41854 -0.04689,0.77177 -0.140632,1.05972 -0.09374,0.28794 -0.222655,0.52065 -0.386705,0.6981 -0.160724,0.17745 -0.349893,0.30469 -0.567531,0.38169 -0.217638,0.077 -0.450336,0.11552 -0.698107,0.11551 -0.244407,1e-5 -0.475441,-0.0385 -0.693067,-0.11551 -0.214285,-0.077 -0.40179,-0.20256 -0.562502,-0.37667 -0.157371,-0.17745 -0.282933,-0.41015 -0.376686,-0.6981 -0.09041,-0.28795 -0.135588,-0.64286 -0.135588,-1.06474 0,-0.44195 0.0452,-0.80691 0.135588,-1.09487 0.09039,-0.29128 0.215976,-0.5223 0.376686,-0.69307 0.160712,-0.17075 0.349881,-0.28961 0.567519,-0.35658 0.220976,-0.0703 0.458704,-0.10547 0.713167,-0.10548 m 5.745537,4.98717 c -1.2e-5,-0.2913 -0.01508,-0.53237 -0.0452,-0.72322 -0.02679,-0.19084 -0.06866,-0.34152 -0.125562,-0.45201 -0.05694,-0.11384 -0.127238,-0.19251 -0.210933,-0.23604 -0.08372,-0.0469 -0.18249,-0.0703 -0.296318,-0.0703 -0.123901,1e-5 -0.231048,0.0234 -0.321434,0.0703 -0.08706,0.0435 -0.159048,0.12221 -0.215962,0.23604 -0.05693,0.11385 -0.10045,0.26619 -0.130576,0.45703 -0.02679,0.19086 -0.04018,0.43025 -0.04018,0.7182 -1.3e-5,0.28125 0.01341,0.51562 0.04018,0.70312 0.02679,0.18416 0.06863,0.33315 0.125562,0.44699 0.06025,0.11384 0.133913,0.19419 0.220979,0.24106 0.08704,0.0469 0.190831,0.0703 0.31139,0.0703 0.110476,0 0.207567,-0.0234 0.291289,-0.0703 0.08704,-0.0469 0.159035,-0.12556 0.215961,-0.23604 0.06025,-0.11385 0.105463,-0.26451 0.135604,-0.45201 0.03013,-0.1875 0.04518,-0.42187 0.0452,-0.70312 m -5.067518,-2.73717 c 0,-0.28794 -0.01509,-0.52567 -0.04521,-0.71317 -0.02679,-0.19084 -0.06863,-0.34152 -0.125562,-0.45201 -0.05692,-0.11383 -0.127238,-0.19251 -0.210934,-0.23605 -0.0837,-0.0469 -0.18249,-0.0703 -0.296318,-0.0703 -0.123886,1e-5 -0.231022,0.0234 -0.321422,0.0703 -0.09041,0.0469 -0.164064,0.12724 -0.220978,0.24107 -0.05693,0.1105 -0.100465,0.26116 -0.130591,0.45201 -0.02679,0.18751 -0.04018,0.42355 -0.04018,0.70815 0,0.28126 0.01341,0.51563 0.04018,0.70312 0.03013,0.18751 0.07366,0.33818 0.130591,0.45201 0.06025,0.11384 0.133912,0.19588 0.220978,0.24609 0.08704,0.0469 0.190845,0.0703 0.311378,0.0703 0.113829,0 0.21261,-0.0234 0.296317,-0.0703 0.08704,-0.0469 0.159036,-0.12722 0.215962,-0.24106 0.06027,-0.11385 0.103802,-0.2645 0.130575,-0.45201 0.03014,-0.19085 0.04521,-0.42689 0.04521,-0.70815" />
  <rect
     style="fill:url(#linearGradient3202);fill-opacity:1;stroke:none;display:inline"
     id="rect3388"
     y="103.61905"
     x="94.476189"
     ry="1.7142862"
     rx="1.7142857"
     height="11.428574"
     width="18.285713" />
  <path
     style="font-size:10px;font-style:normal;font-variant:normal;font-weight:bold;font-stretch:normal;text-align:start;line-height:100%;writing-mode:lr-tb;text-anchor:start;fill:#ffffff;fill-opacity:1;stroke:none;display:inline;font-family:Liberation Sans;-inkscape-font-specification:Liberation Sans Bold"
     id="text3882"
     inkscape:connector-curvature="0"
     d="m 100.75354,108.41815 0,-1.24443 5.73103,0 0,1.24443 -5.73103,0 m 0,3.07477 0,-1.23325 5.73103,0 0,1.23325 -5.73103,0" />
  <path
     style="opacity:0.45;fill:url(#linearGradient3195);fill-opacity:1;fill-rule:nonzero;stroke:none"
     id="rect4377"
     inkscape:connector-curvature="0"
     d="M 9.142857,121.90476 C 4.077714,121.90476 0,117.82705 0,112.76191 L 0,9.142857 C 0,4.077714 4.077714,0 9.142857,0 L 118.85714,0 C 123.92229,0 128,4.077714 128,9.142857 l 0,103.619053 c 0,5.06514 -4.07771,9.14285 -9.14286,9.14285 z m 0,-1.47619 109.714283,0 c 4.27412,0 7.66667,-3.39255 7.66667,-7.66666 l 0,-103.619053 c 0,-4.274118 -3.39255,-7.666667 -7.66667,-7.666667 l -109.714283,0 c -4.274118,0 -7.6666665,3.392549 -7.6666665,7.666667 l 0,103.619053 c 0,4.27411 3.3925485,7.66666 7.6666665,7.66666 z" />
  <path
     style="opacity:0.2;fill:url(#linearGradient3191);fill-opacity:1;fill-rule:nonzero;stroke:none"
     id="rect4414"
     inkscape:connector-curvature="0"
     d="m 0,109.71429 0,3.04762 c 0,5.06514 4.077714,9.14285 9.142857,9.14285 l 109.714283,0 c 5.06515,0 9.14286,-4.07771 9.14286,-9.14285 l 0,-3.04762 c 0,5.06514 -4.07771,9.14285 -9.14286,9.14285 l -109.714283,0 C 4.077714,118.85714 0,114.77943 0,109.71429 z" />
  <path
     style="opacity:0.1;color:#000000;fill:#000000;fill-opacity:1;fill-rule:nonzero;stroke:none;stroke-width:1.5;marker:none;visibility:visible;display:inline;overflow:visible;enable-background:accumulate"
     id="rect4345"
     inkscape:connector-curvature="0"
     d="m 0,115.80952 0,3.04762 C 0,123.92229 4.077714,128 9.142857,128 l 109.714283,0 C 123.92229,128 128,123.92229 128,118.85714 l 0,-3.04762 c 0,5.06515 -4.07771,9.14286 -9.14286,9.14286 l -109.714283,0 C 4.077714,124.95238 0,120.87467 0,115.80952 z" />
  <path
     style="opacity:0.15;color:#000000;fill:#000000;fill-opacity:1;fill-rule:nonzero;stroke:none;stroke-width:1.5;marker:none;visibility:visible;display:inline;overflow:visible;enable-background:accumulate"
     id="rect4336"
     inkscape:connector-curvature="0"
     d="m 0,117.33333 0,1.52381 C 0,123.92229 4.077714,128 9.142857,128 l 109.714283,0 C 123.92229,128 128,123.92229 128,118.85714 l 0,-1.52381 c 0,5.06515 -4.07771,9.14286 -9.14286,9.14286 l -109.714283,0 C 4.077714,126.47619 0,122.39848 0,117.33333 z" />
  <path
     style="fill:url(#linearGradient3338);fill-opacity:1;fill-rule:nonzero;stroke:none;display:inline"
     id="path3888-3"
     inkscape:connector-curvature="0"
     d="m 0,112.76191 0,6.09523 C 0,123.92229 4.077714,128 9.142857,128 l 109.714283,0 C 123.92229,128 128,123.92229 128,118.85714 l 0,-6.09523 c 0,5.06514 -4.07771,9.14285 -9.14286,9.14285 l -109.714283,0 C 4.077714,121.90476 0,117.82705 0,112.76191 z" />
  <g
     id="layer5"
     style="display:none"
     transform="translate(-6,38)">
    <rect
       width="66"
       height="62"
       rx="12"
       ry="12"
       x="15"
       y="15"
       clip-path="url(#clipPath4355)"
       id="rect3171"
       style="opacity:0.1;fill:url(#linearGradient3613);fill-opacity:1;fill-rule:nonzero;stroke:#ffffff;stroke-width:0.5;stroke-linecap:round;stroke-linejoin:miter;stroke-miterlimit:4;stroke-opacity:1;stroke-dasharray:none;stroke-dashoffset:0;filter:url(#filter3794)" />
  </g>
</svg>
